<?xml version="1.0" encoding="UTF-8" standalone="no"?>
<svg width="27px" height="27px" viewBox="0 0 27 27" version="1.1" xmlns="http://www.w3.org/2000/svg" xmlns:xlink="http://www.w3.org/1999/xlink">
    <!-- Generator: Sketch 3.8.2 (29753) - http://www.bohemiancoding.com/sketch -->
    <title>Shape</title>
    <desc>Created with Sketch.</desc>
    <defs></defs>
    <g id="Page-1" stroke="none" stroke-width="1" fill="none" fill-rule="evenodd">
        <path d="M24.72,20.232 C23.5466667,22.2373333 21.9573333,23.8266667 19.952,25 C17.9466667,26.1733333 15.7493333,26.76 13.36,26.76 C10.9706667,26.76 8.77333333,26.1733333 6.768,25 C4.76266667,23.8266667 3.17333333,22.2373333 2,20.232 C0.826666667,18.2266667 0.24,16.0293333 0.24,13.64 C0.24,11.2506667 0.826666667,9.05333333 2,7.048 C3.17333333,5.04266667 4.76266667,3.45333333 6.768,2.28 C8.77333333,1.10666667 10.9706667,0.52 13.36,0.52 C15.7493333,0.52 17.9466667,1.10666667 19.952,2.28 C21.9573333,3.45333333 23.5466667,5.04266667 24.72,7.048 C25.8933333,9.05333333 26.48,11.2506667 26.48,13.64 C26.48,16.0293333 25.8933333,18.2266667 24.72,20.232 L24.72,20.232 Z M22.496,8.36 C21.5466667,6.73866667 20.2613333,5.45333333 18.64,4.504 C17.0186667,3.55466667 15.2586667,3.08 13.36,3.08 C11.4613333,3.08 9.70133333,3.55466667 8.08,4.504 C6.45866667,5.45333333 5.17333333,6.73866667 4.224,8.36 C3.27466667,9.98133333 2.8,11.7413333 2.8,13.64 C2.8,15.5386667 3.27466667,17.2986667 4.224,18.92 C5.17333333,20.5413333 6.45866667,21.8266667 8.08,22.776 C9.70133333,23.7253333 11.4613333,24.2 13.36,24.2 C15.2586667,24.2 17.0186667,23.7253333 18.64,22.776 C20.2613333,21.8266667 21.5466667,20.5413333 22.496,18.92 C23.4453333,17.2986667 23.92,15.5386667 23.92,13.64 C23.92,11.7413333 23.4453333,9.98133333 22.496,8.36 L22.496,8.36 Z M14.64,14.952 L14.64,20.04 L12.08,20.04 L12.08,14.952 L6.96,14.952 L6.96,12.392 L12.08,12.392 L12.08,7.24 L14.64,7.24 L14.64,12.392 L19.76,12.392 L19.76,14.952 L14.64,14.952 L14.64,14.952 Z" id="Shape" fill="#FFFFFF"></path>
    </g>
</svg>