<?xml version="1.0" encoding="iso-8859-1"?>
<!-- Generator: Adobe Illustrator 16.0.0, SVG Export Plug-In . SVG Version: 6.00 Build 0)  -->
<!DOCTYPE svg PUBLIC "-//W3C//DTD SVG 1.1//EN" "http://www.w3.org/Graphics/SVG/1.1/DTD/svg11.dtd">
<svg xmlns="http://www.w3.org/2000/svg" xmlns:xlink="http://www.w3.org/1999/xlink" version="1.1" id="Capa_1" x="0px" y="0px" width="512px" height="512px" viewBox="0 0 52.614 52.615" style="enable-background:new 0 0 52.614 52.615;" xml:space="preserve">
<g>
	<g id="Layer_1_copy">
		<path d="M22.071,24.898c-0.305-0.567-0.705-1.056-1.248-1.411c-0.98-0.642-2.059-0.771-3.186-0.56    c-1.012,0.189-1.833,0.719-2.487,1.508c-0.858,1.036-1.241,2.246-1.271,3.576c-0.012,0.543,0.035,1.084,0.131,1.621    c0.163,0.91,0.462,1.771,1.001,2.535c0.576,0.818,1.339,1.375,2.311,1.637c0.511,0.137,1.033,0.166,1.56,0.14    c0.464-0.025,0.917-0.109,1.355-0.259c0.783-0.27,1.444-0.727,2.017-1.315c0.113-0.117,0.219-0.242,0.331-0.364    c-0.392-0.337-0.773-0.662-1.152-0.99c-0.046-0.039-0.075-0.035-0.109,0.008c-0.044,0.053-0.088,0.107-0.136,0.156    c-0.723,0.762-1.601,1.166-2.658,1.178c-0.699,0.008-1.257-0.271-1.697-0.799c-0.373-0.445-0.589-0.969-0.723-1.527    c-0.089-0.371-0.141-0.748-0.138-1.154c2.274,0,4.535,0,6.799,0c0.048-0.484,0.045-0.957,0.004-1.43    C22.698,26.552,22.498,25.695,22.071,24.898z M20.916,27.537c-1.647,0-3.284,0-4.945,0c0.031-0.271,0.047-0.539,0.093-0.799    c0.11-0.627,0.346-1.201,0.764-1.691c0.659-0.774,1.747-1.013,2.656-0.57c0.495,0.242,0.833,0.642,1.066,1.131    c0.284,0.595,0.385,1.226,0.373,1.88C20.923,27.501,20.918,27.517,20.916,27.537z M36.272,32.308c0,0.357-0.002,0.72,0.002,1.08    c0,0.074-0.024,0.105-0.094,0.135c-0.559,0.224-1.139,0.336-1.738,0.349c-0.323,0.009-0.655,0.026-0.977-0.017    c-0.659-0.084-1.125-0.467-1.438-1.041c-0.259-0.471-0.363-0.981-0.363-1.514c-0.002-2.236-0.002-4.471-0.002-6.704    c0-0.051,0-0.101,0-0.16c-0.565,0-1.119,0-1.688,0c0-0.215-0.003-0.418,0.003-0.622c0-0.03,0.042-0.063,0.072-0.084    c0.326-0.242,0.677-0.457,0.979-0.728c0.643-0.58,1.196-1.238,1.614-2.003c0.078-0.142,0.146-0.287,0.224-0.43    c0.015-0.025,0.043-0.058,0.065-0.058c0.224-0.005,0.445-0.004,0.681-0.004c0,0.858,0,1.706,0,2.567c0.817,0,1.629,0,2.442,0    c0,0.457,0,0.9,0,1.355c-0.811,0-1.621,0-2.44,0c0,0.047,0,0.083,0,0.119c0,2.072-0.004,4.146,0.004,6.218    c0,0.258,0.041,0.521,0.11,0.769c0.132,0.461,0.464,0.715,0.933,0.793c0.502,0.082,0.994,0.035,1.48-0.09    c0.038-0.011,0.077-0.019,0.122-0.029C36.269,32.25,36.272,32.28,36.272,32.308z M41.445,32.515c0,0.328-0.003,0.654,0.002,0.98    c0,0.068-0.021,0.102-0.092,0.121c-0.505,0.162-1.019,0.268-1.551,0.293c-0.372,0.02-0.732-0.012-1.077-0.16    c-0.561-0.246-0.915-0.682-1.121-1.248c-0.108-0.305-0.155-0.615-0.155-0.939c0.002-4.252,0-8.504,0-12.756    c0-0.048,0-0.096,0-0.152c0.656,0,1.309,0,1.975,0c0,0.063,0,0.114,0,0.166c0,4.083-0.001,8.167,0.003,12.249    c0.001,0.241,0.034,0.483,0.082,0.719c0.069,0.351,0.28,0.569,0.64,0.658c0.394,0.094,0.777,0.077,1.166,0.004    c0.036-0.006,0.071-0.015,0.117-0.022C41.438,32.46,41.445,32.489,41.445,32.515z M51.542,22.857c-0.596,0-1.066,0.47-1.066,1.065    c0,0.608,0.463,1.074,1.068,1.074c0.599,0,1.07-0.469,1.07-1.064C52.617,23.331,52.145,22.857,51.542,22.857z M51.542,24.81    c-0.486,0-0.879-0.396-0.879-0.884c0-0.484,0.397-0.881,0.883-0.881c0.479,0,0.883,0.404,0.882,0.886    C52.427,24.414,52.029,24.81,51.542,24.81z M49.38,24.648c-0.424-0.687-1-1.204-1.754-1.508c-0.67-0.27-1.369-0.347-2.084-0.281    c-0.98,0.09-1.83,0.481-2.545,1.155c-0.842,0.796-1.332,1.785-1.556,2.913c-0.183,0.932-0.132,1.859,0.036,2.789    c0.163,0.893,0.473,1.729,1.003,2.478c0.412,0.577,0.929,1.04,1.571,1.344c1.028,0.485,2.104,0.519,3.192,0.272    c1.032-0.231,1.871-0.799,2.582-1.565c0.07-0.078,0.135-0.16,0.207-0.244c-0.406-0.351-0.804-0.688-1.197-1.024    c-0.021,0.016-0.03,0.021-0.038,0.029c-0.015,0.016-0.029,0.03-0.044,0.049c-0.456,0.526-1.006,0.918-1.674,1.131    c-0.506,0.16-1.025,0.229-1.551,0.135c-0.652-0.121-1.115-0.518-1.462-1.062c-0.364-0.574-0.544-1.216-0.616-1.886    c-0.018-0.157-0.022-0.317-0.035-0.496c2.281,0,4.545,0,6.812,0c0.038-0.519,0.042-1.021-0.007-1.521    C50.126,26.395,49.893,25.477,49.38,24.648z M43.431,27.537c0.021-0.229,0.034-0.449,0.066-0.668    c0.1-0.67,0.328-1.287,0.771-1.808c0.462-0.543,1.054-0.826,1.771-0.801c0.873,0.029,1.498,0.471,1.906,1.23    c0.281,0.526,0.407,1.095,0.426,1.689c0.002,0.114,0,0.231,0,0.354C46.72,27.537,45.087,27.537,43.431,27.537z M51.753,24.008    c0.035-0.015,0.066-0.025,0.095-0.04c0.125-0.069,0.188-0.197,0.166-0.332c-0.021-0.131-0.107-0.239-0.244-0.249    c-0.211-0.014-0.423-0.003-0.636-0.003c0,0.373,0,0.753,0,1.134c0.064,0,0.123,0,0.191,0c0-0.161,0-0.317,0-0.472    c0.189-0.021,0.248,0.005,0.342,0.149c0.037,0.056,0.07,0.113,0.102,0.17c0.101,0.178,0.101,0.178,0.328,0.145    c-0.057-0.089-0.106-0.176-0.165-0.26C51.876,24.167,51.813,24.09,51.753,24.008z M51.65,23.857    c-0.104,0.01-0.21,0.002-0.32,0.002c0-0.109,0-0.211,0-0.332c0.11,0.005,0.223,0.006,0.334,0.017    c0.09,0.009,0.146,0.064,0.146,0.16C51.806,23.802,51.736,23.849,51.65,23.857z M29.436,32.316c0,0.355-0.002,0.716,0.002,1.07    c0.001,0.074-0.023,0.107-0.093,0.135c-0.559,0.22-1.139,0.336-1.737,0.353c-0.29,0.007-0.58,0.021-0.869-0.002    c-0.704-0.062-1.208-0.437-1.546-1.043c-0.237-0.424-0.355-0.888-0.363-1.369c-0.014-0.756-0.013-1.512-0.013-2.271    c-0.002-1.534,0-3.073,0-4.608c0-0.044,0-0.087,0-0.144c-0.563,0-1.12,0-1.687,0c0-0.215-0.003-0.416,0.003-0.616    c0-0.03,0.042-0.063,0.071-0.085c0.331-0.248,0.683-0.473,0.992-0.744c0.647-0.571,1.192-1.233,1.611-1.992    c0.078-0.141,0.148-0.287,0.227-0.428c0.015-0.026,0.05-0.059,0.077-0.06c0.22-0.005,0.439-0.003,0.668-0.003    c0,0.858,0,1.705,0,2.563c0.813,0,1.616,0,2.427,0c0,0.458,0,0.903,0,1.361c-0.809,0-1.608,0-2.425,0c0,0.044,0,0.083,0,0.12    c0,2.103-0.001,4.205,0.001,6.309c0,0.264,0.038,0.524,0.139,0.772c0.171,0.412,0.485,0.627,0.917,0.695    c0.486,0.076,0.964,0.033,1.438-0.086c0.049-0.014,0.1-0.021,0.156-0.035C29.433,32.251,29.436,32.286,29.436,32.316z     M2.473,20.849c0.002,0.693-0.53,1.243-1.211,1.249C0.579,22.102,0.022,21.557,0,20.9c-0.021-0.688,0.537-1.269,1.223-1.273    C1.923,19.623,2.471,20.161,2.473,20.849z M6.399,31.995c2.404,0,4.798,0,7.196,0c0,0.588,0,1.164,0,1.742    c-3.306,0-6.605,0-9.918,0c0-0.043,0-0.082,0-0.123c0-0.479-0.002-0.964,0.003-1.442c0-0.064,0.022-0.14,0.058-0.193    c1.25-1.883,2.504-3.764,3.756-5.645c1.115-1.673,2.229-3.348,3.342-5.023c0.018-0.026,0.035-0.054,0.064-0.102    c-2.191,0-4.366,0-6.546,0c0-0.57,0-1.124,0-1.685c3.021,0,6.04,0,9.071,0c0,0.044,0,0.083,0,0.123    c0,0.455,0.002,0.911-0.003,1.367c-0.001,0.078-0.025,0.167-0.067,0.232c-0.511,0.798-1.027,1.591-1.541,2.385    c-0.859,1.327-1.718,2.654-2.578,3.98c-0.596,0.922-1.193,1.842-1.789,2.762C7.101,30.909,6.754,31.446,6.399,31.995z     M0.266,23.38c0.648,0,1.29,0,1.938,0c0,3.451,0,6.898,0,10.357c-0.649,0-1.291,0-1.938,0C0.266,30.284,0.266,26.833,0.266,23.38z    " fill="#FFFFFF"/>
	</g>
</g>
<g>
</g>
<g>
</g>
<g>
</g>
<g>
</g>
<g>
</g>
<g>
</g>
<g>
</g>
<g>
</g>
<g>
</g>
<g>
</g>
<g>
</g>
<g>
</g>
<g>
</g>
<g>
</g>
<g>
</g>
</svg>
