<?xml version="1.0" encoding="utf-8"?>
<!-- Generated by IcoMoon.io -->
<!DOCTYPE svg PUBLIC "-//W3C//DTD SVG 1.1//EN" "http://www.w3.org/Graphics/SVG/1.1/DTD/svg11.dtd">
<svg version="1.1" xmlns="http://www.w3.org/2000/svg" xmlns:xlink="http://www.w3.org/1999/xlink" width="32" height="32" viewBox="0 0 32 32">
<path d="M11.2 6.4v-2.56h8.32v2.56h-8.32zM25.6 25.728q0 1.632-1.040 2.672t-2.672 1.040h-13.056q-1.632 0-2.672-1.040t-1.040-2.672v-17.408h20.48v17.408zM7.68 10.88v14.784q0 0.512 0.352 0.864t0.864 0.352h12.928q0.512 0 0.864-0.352t0.352-0.864v-14.784h-15.36zM12.32 13.44l-0.064 10.88h-1.856l-0.064-10.88h1.984zM16.352 13.44l-0.064 10.88h-1.856l-0.064-10.88h1.984zM20.384 13.44l-0.064 10.88h-1.856l-0.064-10.88h1.984z"></path>
</svg>
