<?xml version="1.0" encoding="utf-8"?>
<!-- Generated by IcoMoon.io -->
<!DOCTYPE svg PUBLIC "-//W3C//DTD SVG 1.1//EN" "http://www.w3.org/Graphics/SVG/1.1/DTD/svg11.dtd">
<svg version="1.1" xmlns="http://www.w3.org/2000/svg" xmlns:xlink="http://www.w3.org/1999/xlink" width="32" height="32" viewBox="0 0 32 32">
<path d="M26.72 23.232q-1.76 3.008-4.768 4.768t-6.592 1.76-6.592-1.76-4.768-4.768-1.76-6.592 1.76-6.592 4.768-4.768 6.592-1.76 6.592 1.76 4.768 4.768 1.76 6.592-1.76 6.592zM24.496 11.36q-1.424-2.432-3.856-3.856t-5.28-1.424-5.28 1.424-3.856 3.856-1.424 5.28 1.424 5.28 3.856 3.856 5.28 1.424 5.28-1.424 3.856-3.856 1.424-5.28-1.424-5.28zM10.688 15.296l3.040 3.392 5.952-7.744 1.92 1.472-7.744 9.984-4.96-5.504z"></path>
</svg>
