<?xml version="1.0" standalone="no"?>
<!DOCTYPE svg PUBLIC "-//W3C//DTD SVG 1.1//EN" "http://www.w3.org/Graphics/SVG/1.1/DTD/svg11.dtd" >
<svg>
<metadata>
Created by FontForge 20090622 at Wed Jun  1 19:35:30 2016
 By deploy user
Copyright &#194;&#169; 2014 by Nino H&#195;&#182;glund. All rights reserved.
</metadata>
<defs>
<font id="Zent-Bold" horiz-adv-x="578" >
  <font-face 
    font-family="Zent"
    font-weight="700"
    font-stretch="normal"
    units-per-em="1000"
    panose-1="0 0 8 0 0 0 0 0 0 0"
    ascent="800"
    descent="-200"
    x-height="490"
    cap-height="700"
    bbox="-22 -225 1205 957"
    underline-thickness="50"
    underline-position="-50"
    unicode-range="U+0020-U+FB03"
  />
<missing-glyph horiz-adv-x="804" 
d="M402 710q149 0 254.5 -105.5t105.5 -254.5t-105.5 -254.5t-254.5 -105.5t-254.5 105.5t-105.5 254.5t105.5 254.5t254.5 105.5zM403 409l-127 126l-58 -58l126 -126l-126 -127l58 -58l127 126l126 -126l58 58l-126 127l126 126l-58 58z" />
    <glyph glyph-name="fi" unicode="fi" horiz-adv-x="605" 
d="M275 730q59 0 106 -27l-54 -105q-24 12 -53 12q-55 0 -55 -44v-76h310v-490h-124v390h-186v-390h-124v390h-57v100h57v72q0 79 48.5 123.5t131.5 44.5zM467 680q29 0 49.5 -20.5t20.5 -49.5t-20.5 -49.5t-49.5 -20.5t-49.5 20.5t-20.5 49.5t20.5 49.5t49.5 20.5z" />
    <glyph glyph-name=".notdef" horiz-adv-x="804" 
d="M402 710q149 0 254.5 -105.5t105.5 -254.5t-105.5 -254.5t-254.5 -105.5t-254.5 105.5t-105.5 254.5t105.5 254.5t254.5 105.5zM403 409l-127 126l-58 -58l126 -126l-126 -127l58 -58l127 126l126 -126l58 58l-126 127l126 126l-58 58z" />
    <glyph glyph-name=".null" horiz-adv-x="0" 
 />
    <glyph glyph-name="nonmarkingreturn" horiz-adv-x="333" 
 />
    <glyph glyph-name="space" unicode=" " horiz-adv-x="252" 
 />
    <glyph glyph-name="exclam" unicode="!" horiz-adv-x="319" 
d="M208 218h-96l-20 482h136zM159 153q34 0 58 -24t24 -58t-24 -57.5t-58 -23.5t-57.5 23.5t-23.5 57.5t23.5 58t57.5 24z" />
    <glyph glyph-name="quotedbl" unicode="&#x22;" horiz-adv-x="357" 
d="M126 451h-51l-27 249h105zM278 451h-51l-27 249h105z" />
    <glyph glyph-name="numbersign" unicode="#" horiz-adv-x="673" 
d="M514 447l-27 -193h87v-76h-98l-25 -178h-76l25 178h-174l-25 -178h-76l25 178h-86v76h97l27 193h-89v76h99l25 177h76l-25 -177h174l25 177h76l-25 -177h85v-76h-95zM438 447h-174l-27 -193h174z" />
    <glyph glyph-name="dollar" unicode="$" horiz-adv-x="560" 
d="M355 580l-23 -165q93 -39 139.5 -90.5t46.5 -138.5q0 -86 -67.5 -141t-162.5 -55h-16l-10 -69l-69 10l10 71q-80 22 -157 91l78 99q61 -49 97 -65l26 187q-90 37 -136 81t-46 121q0 31 12.5 63t37.5 62.5t72.5 49.5t108.5 19h7l9 67l69 -10l-9 -65q67 -16 129 -67
l-71 -100q-44 33 -75 45zM195 516q0 -23 16 -39.5t54 -34.5l21 148q-47 -3 -69 -25.5t-22 -48.5zM289 110h3q44 0 70 22t26 54q0 31 -17 53.5t-58 44.5z" />
    <glyph glyph-name="percent" unicode="%" horiz-adv-x="847" 
d="M218 710q70 0 120 -50.5t50 -120.5t-50 -119.5t-120 -49.5t-120 49.5t-50 119.5t50 120.5t120 50.5zM251 0h-90l431 700h89zM218 618q-32 0 -55 -23t-23 -55t23 -55t55 -23t55 23t23 55t-23 55t-55 23zM629 330q70 0 120 -50.5t50 -120.5t-50 -119.5t-120 -49.5
t-120 49.5t-50 119.5t50 120.5t120 50.5zM629 238q-31 0 -54.5 -23t-23.5 -55t23.5 -55t54.5 -23t54.5 23t23.5 55t-23.5 55t-54.5 23z" />
    <glyph glyph-name="ampersand" unicode="&#x26;" horiz-adv-x="654" 
d="M620 71l-91 -81l-84 96q-35 -39 -87 -67.5t-110 -28.5q-85 0 -143.5 58t-58.5 135q0 67 36.5 113.5t97.5 90.5l-13 15q-58 66 -58 139t54 120.5t129 47.5t128.5 -49t53.5 -115q0 -55 -31 -96.5t-86 -80.5l93 -105l78 87l90 -80l-88 -98zM291 588q-24 0 -40.5 -16
t-16.5 -37q0 -26 24 -56l21 -24q70 48 70 82q0 19 -17 35t-41 16zM252 111q56 0 114 64l-108 124q-28 -20 -43.5 -33t-29.5 -34.5t-14 -44.5q0 -30 23 -53t58 -23z" />
    <glyph glyph-name="quotesingle" unicode="'" horiz-adv-x="205" 
d="M126 451h-51l-27 249h105z" />
    <glyph glyph-name="parenleft" unicode="(" horiz-adv-x="313" 
d="M205 753l74 -41l-11.5 -19.5t-26.5 -53.5t-33 -84.5t-26 -108t-12 -127.5t11 -127t27 -109.5t32.5 -82.5t27.5 -56l11 -18l-74 -41l-14 23t-31.5 62.5t-40 96t-31.5 118t-14 134.5t13.5 133.5t32.5 120t38.5 94t33.5 64.5z" />
    <glyph glyph-name="parenright" unicode=")" horiz-adv-x="314" 
d="M41 712l74 41l14 -23t31.5 -62.5t40 -96t31.5 -118t14 -134.5t-13.5 -133.5t-32.5 -120t-38.5 -94t-33.5 -64.5l-13 -22l-74 41l11.5 19.5t26.5 53.5t33 84.5t26 108t12 127.5t-11 127t-27 109.5t-32.5 82.5t-27.5 56z" />
    <glyph glyph-name="asterisk" unicode="*" horiz-adv-x="448" 
d="M255 593l89 56l36 -60l-94 -50l93 -49l-34 -60l-90 55l4 -106h-70l4 107l-91 -56l-34 60l94 49l-94 50l34 60l91 -57l-4 108h70z" />
    <glyph glyph-name="plus" unicode="+" horiz-adv-x="658" 
d="M574 247h-197v-197h-96v197h-197v96h197v197h96v-197h197v-96z" />
    <glyph glyph-name="comma" unicode="," horiz-adv-x="274" 
d="M137 153q36 0 59.5 -27t23.5 -83q0 -116 -98 -181l-29 40q49 29 63 91q-10 -3 -21 -3q-34 0 -57.5 23.5t-23.5 57.5t24 58t59 24z" />
    <glyph glyph-name="hyphen" unicode="-" horiz-adv-x="397" 
d="M337 204h-277v112h277v-112z" />
    <glyph glyph-name="period" unicode="." horiz-adv-x="271" 
d="M135 153q34 0 58 -24t24 -58t-24 -57.5t-58 -23.5t-57.5 23.5t-23.5 57.5t23.5 58t57.5 24z" />
    <glyph glyph-name="slash" unicode="/" horiz-adv-x="398" 
d="M96 -101h-103l323 901h102z" />
    <glyph glyph-name="zero" unicode="0" horiz-adv-x="580" 
d="M290 710q115 0 177.5 -94t62.5 -266t-62.5 -266t-177.5 -94t-177.5 94t-62.5 266t62.5 266t177.5 94zM290 590q-110 0 -110 -240t110 -240t110 240t-110 240z" />
    <glyph glyph-name="one" unicode="1" horiz-adv-x="501" 
d="M452 120v-120h-378v120h124v416l-110 -54l-46 103l246 120h40v-585h124z" />
    <glyph glyph-name="two" unicode="2" horiz-adv-x="546" 
d="M272 710q92 0 154.5 -60t62.5 -153q0 -52 -24 -98t-84 -121l-129 -158h238v-120h-450v40l235 299q47 61 65.5 93.5t18.5 67.5q0 43 -25.5 66.5t-63.5 23.5q-42 0 -67 -29t-25 -75l-128 13q0 86 63.5 148.5t158.5 62.5z" />
    <glyph glyph-name="three" unicode="3" horiz-adv-x="558" 
d="M475 660l-149 -219q80 -20 128 -80.5t48 -140.5q0 -97 -72 -163.5t-176 -66.5q-70 0 -126.5 32.5t-87.5 86.5l118 59q33 -58 99 -58q49 0 82 32t33 79q0 50 -31.5 82t-83.5 32l-53 -5l-55 62l134 188h-217v120h409v-40z" />
    <glyph glyph-name="four" unicode="4" horiz-adv-x="547" 
d="M187 251h125v149h124v-149h67v-121h-67v-130h-124v130h-272v68l211 502h130z" />
    <glyph glyph-name="five" unicode="5" horiz-adv-x="556" 
d="M444 580h-226l-18 -133q27 9 61 9q103 0 171 -66.5t68 -164.5q0 -99 -69.5 -167t-171.5 -68q-81 0 -138.5 45t-80.5 118l122 36q24 -79 96 -79q48 0 80 32.5t32 80.5q0 47 -30.5 79.5t-78.5 32.5q-41 0 -79 -30l-107 40l43 355h326v-120z" />
    <glyph glyph-name="six" unicode="6" horiz-adv-x="585" 
d="M331 710q82 0 168 -53l-67 -101q-52 34 -99 34q-59 0 -96.5 -46.5t-50.5 -119.5q55 34 116 34q87 0 157 -65t70 -167q0 -100 -68 -168t-172 -68q-72 0 -125.5 34.5t-81.5 90.5q-32 64 -32 176q0 207 79 313t202 106zM292 337q-44 0 -78 -31t-34 -83q0 -48 30.5 -80.5
t77.5 -32.5t79 32t32 81t-31.5 81.5t-75.5 32.5z" />
    <glyph glyph-name="seven" unicode="7" horiz-adv-x="488" 
d="M464 700v-32l-265 -668h-125l234 580h-284v120h440z" />
    <glyph glyph-name="eight" unicode="8" horiz-adv-x="594" 
d="M433 382q49 -29 77 -76t28 -102q0 -91 -69 -152.5t-172 -61.5t-172 62t-69 152q0 55 28 102t77 76q-72 57 -72 143q0 77 59.5 131t148.5 54t148.5 -54t59.5 -131q0 -89 -72 -143zM297 591q-35 0 -58.5 -22.5t-23.5 -54.5q0 -33 23.5 -55.5t58.5 -22.5t58.5 22t23.5 56
q0 32 -23.5 54.5t-58.5 22.5zM297 113q48 0 79.5 30t31.5 74q0 43 -31.5 73t-79.5 30t-79.5 -30t-31.5 -73q0 -44 31.5 -74t79.5 -30z" />
    <glyph glyph-name="nine" unicode="9" horiz-adv-x="585" 
d="M296 710q72 0 125.5 -34.5t81.5 -90.5q32 -64 32 -176q0 -215 -75.5 -317t-205.5 -102q-82 0 -168 53l67 101q50 -34 99 -34q60 0 99.5 45t47.5 117q-55 -34 -116 -34q-87 0 -157 65.5t-70 168.5q0 100 68 169t172 69zM297 590q-47 0 -79 -33t-32 -83t31.5 -82.5
t76.5 -32.5q43 0 77 30.5t34 82.5q0 49 -30.5 83.5t-77.5 34.5z" />
    <glyph glyph-name="colon" unicode=":" horiz-adv-x="254" 
d="M126 500q31 0 52.5 -22t21.5 -52q0 -31 -21.5 -52t-52.5 -21q-30 0 -51 21t-21 52q0 30 21 52t51 22zM126 138q31 0 52.5 -22t21.5 -52q0 -31 -21.5 -52t-52.5 -21q-30 0 -51 21t-21 52q0 30 21 52t51 22z" />
    <glyph glyph-name="semicolon" unicode=";" horiz-adv-x="257" 
d="M126 500q31 0 52.5 -22t21.5 -52q0 -31 -21.5 -52t-52.5 -21q-30 0 -51 21t-21 52q0 30 21 52t51 22zM128 138q33 0 54 -24.5t21 -74.5q0 -105 -88 -163l-26 36q43 25 56 82q-9 -3 -19 -3q-30 0 -51 21t-21 52q0 30 21.5 52t52.5 22z" />
    <glyph glyph-name="less" unicode="&#x3c;" horiz-adv-x="615" 
d="M503 441l-257 -145l257 -145v-110l-408 235v40l408 235v-110z" />
    <glyph glyph-name="equal" unicode="=" horiz-adv-x="658" 
d="M574 343h-490v96h490v-96zM574 153h-490v96h490v-96z" />
    <glyph glyph-name="greater" unicode="&#x3e;" horiz-adv-x="610" 
d="M526 316v-40l-408 -235v110l257 145l-257 145v110z" />
    <glyph glyph-name="question" unicode="?" horiz-adv-x="542" 
d="M262 710q96 0 160 -61.5t64 -150.5q0 -42 -16.5 -76t-40 -54.5t-47 -38.5t-40 -37.5t-16.5 -40.5v-33h-126v33q0 43 16 77t39 54.5t46 38.5t39 39t16 45q0 34 -26 59.5t-68 25.5q-40 0 -67 -25t-33 -64l-122 37q16 76 76.5 124t145.5 48zM257 152q34 0 58 -24t24 -58
t-24 -57.5t-58 -23.5t-57.5 23.5t-23.5 57.5t23.5 58t57.5 24z" />
    <glyph glyph-name="at" unicode="@" horiz-adv-x="956" 
d="M492 702q175 0 298.5 -114t123.5 -277q0 -78 -29 -150t-87 -120.5t-132 -48.5q-67 0 -99 41q-58 -43 -132 -43q-85 0 -137.5 56t-52.5 147q0 108 71 193.5t171 85.5q64 0 114 -39l19 28h67l-44 -333q-2 -19 11 -29.5t35 -10.5q41 0 72 38.5t44.5 88t13.5 96.5
q0 121 -96 209.5t-232 88.5q-148 0 -250.5 -106.5t-102.5 -256.5q0 -152 103 -263t245 -111q77 0 163 39l44 -84q-107 -47 -206 -47q-120 0 -223 63.5t-162.5 170.5t-59.5 231q0 189 130.5 323t319.5 134zM487 379q-39 0 -68.5 -19.5t-45 -50t-23 -60.5t-7.5 -56
q0 -51 27.5 -81t74.5 -30q60 0 103 43l28 211q-32 43 -89 43z" />
    <glyph glyph-name="A" unicode="A" horiz-adv-x="673" 
d="M469 140h-265l-57 -140h-135l296 705h57l296 -705h-135zM421 260l-84 206l-84 -206h168z" />
    <glyph glyph-name="B" unicode="B" horiz-adv-x="610" 
d="M467 365q44 -26 69 -68t25 -93q0 -83 -62 -143.5t-156 -60.5h-259v700h241q90 0 148 -58t58 -138q0 -82 -64 -139zM214 580v-169h104q38 0 60.5 25.5t22.5 61.5q0 34 -19.5 58t-53.5 24h-114zM214 120h134q38 0 60.5 26.5t22.5 62.5q0 38 -25.5 65t-67.5 27h-124v-181z
" />
    <glyph glyph-name="C" unicode="C" horiz-adv-x="687" 
d="M391 710q143 0 245 -104l-83 -94q-65 78 -162 78q-91 0 -155 -70.5t-64 -169.5t64 -169.5t155 -70.5q94 0 158 72l96 -82q-47 -51 -113 -80.5t-140 -29.5q-146 0 -248 105t-102 255q0 149 102 254.5t247 105.5z" />
    <glyph glyph-name="D" unicode="D" horiz-adv-x="659" 
d="M84 700h183q145 0 247.5 -102.5t102.5 -247.5t-102.5 -247.5t-247.5 -102.5h-183v700zM214 120h46q104 0 165.5 66t61.5 164t-61.5 164t-165.5 66h-46v-460z" />
    <glyph glyph-name="E" unicode="E" horiz-adv-x="574" 
d="M214 580v-167h258v-120h-258v-173h310v-120h-440v700h440v-120h-310z" />
    <glyph glyph-name="F" unicode="F" horiz-adv-x="550" 
d="M214 580v-164h248v-120h-248v-296h-130v700h440v-120h-310z" />
    <glyph glyph-name="G" unicode="G" horiz-adv-x="736" 
d="M680 382v-237q-56 -79 -132 -117t-157 -38q-145 0 -247 105.5t-102 254.5t102 254.5t247 105.5q143 0 245 -104l-83 -94q-65 78 -162 78q-91 0 -155 -70.5t-64 -169.5t64 -169.5t156 -70.5q95 0 158 71v81h-130v120h260z" />
    <glyph glyph-name="H" unicode="H" horiz-adv-x="728" 
d="M644 700v-700h-130v295h-300v-295h-130v700h130v-285h300v285h130z" />
    <glyph glyph-name="I" unicode="I" horiz-adv-x="298" 
d="M214 0h-130v700h130v-700z" />
    <glyph glyph-name="J" unicode="J" horiz-adv-x="514" 
d="M440 700v-459q0 -108 -66.5 -179.5t-166.5 -71.5q-64 0 -115.5 31t-81.5 85l93 69q16 -31 43.5 -48t57.5 -17q47 0 76.5 40t29.5 102v448h130z" />
    <glyph glyph-name="K" unicode="K" horiz-adv-x="684" 
d="M273 314l-59 -60v-254h-130v700h130v-270l264 270h175l-292 -296l311 -404l-159 1z" />
    <glyph glyph-name="L" unicode="L" horiz-adv-x="498" 
d="M476 120v-120h-392v700h130v-580h262z" />
    <glyph glyph-name="M" unicode="M" horiz-adv-x="834" 
d="M802 0h-132l-73 364l-164 -369h-32l-164 369l-73 -364h-132l140 705h32l213 -442l213 442h32z" />
    <glyph glyph-name="N" unicode="N" horiz-adv-x="724" 
d="M510 270v430h130v-705h-42l-384 435v-430h-130v705h42z" />
    <glyph glyph-name="O" unicode="O" horiz-adv-x="782" 
d="M391 710q145 0 247 -105.5t102 -254.5t-102 -254.5t-247 -105.5t-247 105.5t-102 254.5t102 254.5t247 105.5zM391 590q-91 0 -155 -70.5t-64 -169.5t64 -169.5t155 -70.5t155 70.5t64 169.5t-64 169.5t-155 70.5z" />
    <glyph glyph-name="P" unicode="P" horiz-adv-x="610" 
d="M84 700h241q97 0 166.5 -65.5t69.5 -157.5t-70.5 -157.5t-167.5 -65.5h-109v-254h-130v700zM214 374h114q40 0 71.5 31.5t31.5 71.5t-31.5 71.5t-71.5 31.5h-114v-206z" />
    <glyph glyph-name="Q" unicode="Q" horiz-adv-x="782" 
d="M740 350q0 -151 -103 -256l82 -104l-90 -70l-84 107q-71 -37 -154 -37q-145 0 -247 105.5t-102 254.5t102 254.5t247 105.5t247 -105.5t102 -254.5zM391 110q41 0 77 15l-65 82l89 71l66 -84q52 68 52 156q0 99 -64 169.5t-155 70.5t-155 -70.5t-64 -169.5t64 -169.5
t155 -70.5z" />
    <glyph glyph-name="R" unicode="R" horiz-adv-x="628" 
d="M284 254h-70v-254h-130v700h241q97 0 166.5 -65.5t69.5 -157.5q0 -68 -40.5 -123.5t-104.5 -81.5l163 -272h-145zM214 374h114q40 0 71.5 31.5t31.5 71.5t-31.5 71.5t-71.5 31.5h-114v-206z" />
    <glyph glyph-name="S" unicode="S" horiz-adv-x="560" 
d="M296 710q114 0 205 -75l-71 -100q-39 29 -68 42t-67 13q-51 0 -75.5 -23t-24.5 -51t24.5 -47t82.5 -42q109 -42 162.5 -95t53.5 -146q0 -86 -67.5 -141t-162.5 -55q-127 0 -242 103l78 99q1 -1 10 -8t12.5 -10t13.5 -10.5t16 -11.5l16.5 -10.5t18 -10l18.5 -8.5t20.5 -7
t20.5 -4t22 -2q44 0 70 22t26 54q0 39 -29 66.5t-106 58.5q-93 38 -140.5 82.5t-47.5 122.5q0 31 12.5 63t37.5 62.5t72.5 49.5t108.5 19z" />
    <glyph glyph-name="T" unicode="T" horiz-adv-x="536" 
d="M514 580h-181v-580h-130v580h-181v120h492v-120z" />
    <glyph glyph-name="U" unicode="U" horiz-adv-x="680" 
d="M606 700v-434q0 -116 -75.5 -196t-190.5 -80t-190.5 80t-75.5 196v434h130v-434q0 -65 40 -110.5t96 -45.5t96 45.5t40 110.5v434h130z" />
    <glyph glyph-name="V" unicode="V" horiz-adv-x="652" 
d="M640 700l-297 -705h-36l-295 705h135l178 -453l180 453h135z" />
    <glyph glyph-name="W" unicode="W" horiz-adv-x="840" 
d="M585 316l88 384h135l-180 -705h-36l-172 424l-172 -424h-36l-180 705h135l88 -384l147 389h36z" />
    <glyph glyph-name="X" unicode="X" horiz-adv-x="661" 
d="M402 356l225 -356h-142l-154 244l-155 -244h-142l225 357l-217 343h142l146 -231l146 231h143z" />
    <glyph glyph-name="Y" unicode="Y" horiz-adv-x="601" 
d="M366 300v-300h-130v297l-232 403h145l152 -274l151 274h145z" />
    <glyph glyph-name="Z" unicode="Z" horiz-adv-x="546" 
d="M510 630l-307 -510h313v-120h-486v70l307 510h-297v120h470v-70z" />
    <glyph glyph-name="bracketleft" unicode="[" horiz-adv-x="320" 
d="M286 704h-116v-770h116v-92h-212v954h212v-92z" />
    <glyph glyph-name="backslash" unicode="\" horiz-adv-x="398" 
d="M82 800l323 -901h-103l-322 901h102z" />
    <glyph glyph-name="bracketright" unicode="]" horiz-adv-x="321" 
d="M253 796v-954h-212v92h116v770h-116v92h212z" />
    <glyph glyph-name="asciicircum" unicode="^" horiz-adv-x="586" 
d="M528 399h-110l-125 182l-125 -182h-110l215 313h40z" />
    <glyph glyph-name="underscore" unicode="_" horiz-adv-x="596" 
d="M552 -161h-508v96h508v-96z" />
    <glyph glyph-name="grave" unicode="`" horiz-adv-x="351" 
d="M264 577l-46 -42l-131 132l60 57z" />
    <glyph glyph-name="a" unicode="a" horiz-adv-x="507" 
d="M430 334v-182q0 -49 43 -49v-106q-18 -2 -34 -2q-63 0 -97 38q-64 -43 -143 -43q-73 0 -118 41t-45 107q0 73 55 116.5t146 43.5q6 0 69 -3v24q0 68 -71 68q-51 0 -101 -33l-68 82q91 64 182 64q81 0 131.5 -42.5t50.5 -123.5zM227 101q48 0 80 26q-1 8 -1 25v57
q-27 3 -58 3q-52 0 -74.5 -17.5t-22.5 -43.5q0 -50 76 -50z" />
    <glyph glyph-name="b" unicode="b" horiz-adv-x="566" 
d="M296 500q96 0 165 -75t69 -180q0 -104 -69 -179.5t-162 -75.5q-74 0 -136 59l-21 -49h-76v700h124v-229q52 29 106 29zM282 103q55 0 89.5 41t34.5 101q0 59 -33.5 100.5t-94.5 41.5q-47 0 -88 -22v-226q39 -36 92 -36z" />
    <glyph glyph-name="c" unicode="c" horiz-adv-x="504" 
d="M291 500q94 0 167 -62l-78 -88q-37 37 -89 37q-56 0 -93.5 -41t-37.5 -101t37.5 -101t94.5 -41t94 43l82 -83q-75 -73 -177 -73q-106 0 -180.5 75t-74.5 180t74.5 180t180.5 75z" />
    <glyph glyph-name="d" unicode="d" horiz-adv-x="566" 
d="M500 700v-700h-76l-21 49q-62 -59 -136 -59q-93 0 -162 75.5t-69 179.5q0 105 69 180t165 75q54 0 106 -29v229h124zM160 245q0 -60 34.5 -101t89.5 -41q53 0 92 36v226q-41 22 -88 22q-61 0 -94.5 -41.5t-33.5 -100.5z" />
    <glyph glyph-name="e" unicode="e" horiz-adv-x="539" 
d="M501 210h-337q11 -48 44.5 -77.5t80.5 -29.5q64 0 104 43l80 -78q-76 -78 -187 -78q-106 0 -178 72.5t-72 183.5q0 110 71 182t175 72t162.5 -72.5t58.5 -182.5q0 -24 -2 -35zM166 296h214q-7 41 -32.5 66t-67.5 25t-72 -25t-42 -66z" />
    <glyph glyph-name="f" unicode="f" horiz-adv-x="355" 
d="M265 710q64 0 119 -41l-63 -100q-21 21 -57 21q-45 0 -45 -44v-56h106v-100h-106v-390h-124v390h-57v100h57v52q0 79 46 123.5t124 44.5z" />
    <glyph glyph-name="g" unicode="g" horiz-adv-x="518" 
d="M508 488l-77 -71q30 -44 30 -98q0 -76 -56.5 -126.5t-142.5 -50.5q-54 0 -97 21q-8 -11 -8 -24q0 -54 131 -59q33 -1 50 -2.5t50 -6t52 -13t40 -22.5t31 -36.5t10 -52.5q0 -81 -71.5 -122.5t-179.5 -41.5q-110 0 -170 45t-60 117q0 59 54 106q-30 35 -30 80q0 48 35 83
q-37 45 -37 107q0 78 56.5 128.5t141.5 50.5q58 0 105 -25l84 77zM262 393q-37 0 -60 -21t-23 -53q0 -33 23.5 -54.5t60.5 -21.5q36 0 59 21.5t23 53.5q0 33 -23 54t-60 21zM172 0q-22 -22 -22 -49q0 -69 122 -69q58 0 93.5 15.5t35.5 41.5q0 23 -26.5 30t-89.5 9
q-65 2 -113 22z" />
    <glyph glyph-name="h" unicode="h" horiz-adv-x="546" 
d="M309 500q82 0 126.5 -55t44.5 -125v-320h-124v279q0 55 -18 81.5t-60 26.5q-50 0 -88 -42v-345h-124v700h124v-239q56 39 119 39z" />
    <glyph glyph-name="i" unicode="i" horiz-adv-x="330" 
d="M193 710q28 0 48.5 -20.5t20.5 -48.5q0 -29 -20.5 -50t-48.5 -21q-29 0 -50 21t-21 50q0 28 21 48.5t50 20.5zM255 0h-124v381h-88v109h212v-490z" />
    <glyph glyph-name="j" unicode="j" horiz-adv-x="330" 
d="M193 710q28 0 48.5 -20.5t20.5 -48.5q0 -29 -20.5 -50t-48.5 -21q-29 0 -50 21t-21 50q0 28 21 48.5t50 20.5zM255 490v-493q-1 -98 -48 -153.5t-137 -63.5l-29 111q44 11 67 35.5t23 74.5v380h-88v109h212z" />
    <glyph glyph-name="k" unicode="k" horiz-adv-x="546" 
d="M228 220l-38 -35v-185h-124v700h124v-361l165 151h164l-202 -188l217 -302h-148z" />
    <glyph glyph-name="l" unicode="l" horiz-adv-x="285" 
d="M190 700v-548q0 -25 17 -37t46 -10v-110q-12 -1 -27 -1q-160 0 -160 154v552h124z" />
    <glyph glyph-name="m" unicode="m" horiz-adv-x="816" 
d="M583 500q78 0 122.5 -55t44.5 -125v-320h-124v279q0 108 -77 108q-46 0 -80 -43q1 -8 1 -24v-320h-124v279q0 108 -76 108q-47 0 -80 -43v-344h-124v490h76l20 -50q64 60 140 60q85 0 133 -67q63 67 148 67z" />
    <glyph glyph-name="n" unicode="n" horiz-adv-x="546" 
d="M309 500q82 0 126.5 -55t44.5 -125v-320h-124v279q0 55 -18 81.5t-60 26.5q-50 0 -88 -42v-345h-124v490h76l21 -50q69 60 146 60z" />
    <glyph glyph-name="o" unicode="o" horiz-adv-x="582" 
d="M291 500q106 0 180.5 -75t74.5 -180t-74.5 -180t-180.5 -75t-180.5 75t-74.5 180t74.5 180t180.5 75zM291 387q-56 0 -93.5 -41t-37.5 -101t37.5 -101t93.5 -41t93.5 41t37.5 101t-37.5 101t-93.5 41z" />
    <glyph glyph-name="p" unicode="p" horiz-adv-x="566" 
d="M299 500q93 0 162 -75.5t69 -179.5q0 -105 -69 -180t-165 -75q-54 0 -106 29v-229h-124v700h76l21 -49q62 59 136 59zM278 103q61 0 94.5 41.5t33.5 100.5q0 60 -34.5 101t-89.5 41q-53 0 -92 -36v-226q41 -22 88 -22z" />
    <glyph glyph-name="q" unicode="q" horiz-adv-x="566" 
d="M500 490v-700h-124v229q-52 -29 -106 -29q-96 0 -165 75t-69 180q0 104 69 179.5t162 75.5q74 0 136 -59l21 49h76zM288 103q47 0 88 22v226q-39 36 -92 36q-55 0 -89.5 -41t-34.5 -101q0 -59 33.5 -100.5t94.5 -41.5z" />
    <glyph glyph-name="r" unicode="r" horiz-adv-x="385" 
d="M303 500q34 0 64 -9l-18 -130q-45 20 -72 20q-55 0 -87 -51v-330h-124v490h76l21 -50q64 60 140 60z" />
    <glyph glyph-name="s" unicode="s" horiz-adv-x="441" 
d="M233 500q53 0 88 -16.5t73 -48.5l-69 -82q-45 36 -89 36q-53 0 -53 -32q0 -24 51 -45q3 -1 23 -9q27 -11 47.5 -22t46 -30.5t40 -48.5t14.5 -64q0 -67 -50.5 -107.5t-131.5 -40.5q-57 0 -99 20.5t-88 60.5l68 81q22 -16 36 -25t36 -16.5t45 -7.5q60 0 60 37
q0 15 -14.5 29.5t-27 21t-36.5 17.5q-65 29 -100.5 63t-35.5 90q0 57 40.5 98t125.5 41z" />
    <glyph glyph-name="t" unicode="t" horiz-adv-x="357" 
d="M212 490h111v-100h-111v-236q0 -47 38 -47q23 0 46 16l25 -101q-44 -32 -104 -32q-61 0 -95 34t-34 104v262h-54v100h54v87l124 33v-120z" />
    <glyph glyph-name="u" unicode="u" horiz-adv-x="536" 
d="M470 0h-76l-21 50q-64 -60 -139 -60q-79 0 -123.5 55t-44.5 125v320h124v-279q0 -108 76 -108q47 0 80 43v344h124v-490z" />
    <glyph glyph-name="v" unicode="v" horiz-adv-x="500" 
d="M488 490l-220 -495h-36l-220 495h126l112 -274l112 274h126z" />
    <glyph glyph-name="w" unicode="w" horiz-adv-x="684" 
d="M474 243l72 247h126l-163 -495h-34l-133 293l-133 -293h-34l-163 495h126l72 -247l114 251h36z" />
    <glyph glyph-name="x" unicode="x" horiz-adv-x="504" 
d="M320 250l172 -250h-135l-105 152l-105 -152h-135l173 250l-166 240h135l98 -142l98 142h135z" />
    <glyph glyph-name="y" unicode="y" horiz-adv-x="528" 
d="M516 490l-195 -501q-36 -88 -93.5 -138.5t-153.5 -70.5l-29 112q126 27 162 122l4 10l-199 466h135l120 -316l118 316h131z" />
    <glyph glyph-name="z" unicode="z" horiz-adv-x="466" 
d="M436 425l-237 -316h234v-109h-403v65l237 316h-229v109h398v-65z" />
    <glyph glyph-name="braceleft" unicode="{" horiz-adv-x="392" 
d="M358 778v-82q-106 -6 -106 -100v-158q0 -41 -18 -72.5t-49 -44.5v-4q31 -13 49 -44.5t18 -72.5v-158q0 -94 106 -100v-82q-92 0 -147 52t-55 140v138q0 44 -21 66t-61 30v66q40 8 61 30t21 66v138q0 88 55 140t147 52z" />
    <glyph glyph-name="bar" unicode="|" horiz-adv-x="254" 
d="M170 -200h-86v1000h86v-1000z" />
    <glyph glyph-name="braceright" unicode="}" horiz-adv-x="393" 
d="M41 696v82q92 0 147 -52t55 -140v-138q0 -44 21 -66t61 -30v-66q-40 -8 -61 -30t-21 -66v-138q0 -88 -55 -140t-147 -52v82q106 6 106 100v158q0 41 18 72.5t49 44.5v4q-31 13 -49 44.5t-18 72.5v158q0 94 -106 100z" />
    <glyph glyph-name="asciitilde" unicode="~" horiz-adv-x="619" 
d="M228 380q22 0 43 -9t32 -17t32 -25q35 -29 53 -29q35 0 62 51l85 -46q-55 -101 -145 -101q-23 0 -45 8.5t-33.5 16.5t-30.5 24q-38 31 -52 31q-33 0 -60 -53l-85 44q56 105 144 105z" />
    <glyph glyph-name="uni00A0" unicode="&#xa0;" horiz-adv-x="252" 
 />
    <glyph glyph-name="exclamdown" unicode="&#xa1;" horiz-adv-x="319" 
d="M159 337q-34 0 -57.5 24t-23.5 58t23.5 57.5t57.5 23.5t58 -23.5t24 -57.5t-24 -58t-58 -24zM92 -210l20 482h96l20 -482h-136z" />
    <glyph glyph-name="cent" unicode="&#xa2;" horiz-adv-x="504" 
d="M386 146l82 -83q-75 -73 -177 -73q-17 0 -25 1l-9 -62l-49 7l9 65q-80 24 -130.5 91.5t-50.5 152.5q0 105 73.5 179.5t178.5 75.5l10 74l49 -7l-10 -71q69 -13 121 -58l-78 -88q-26 26 -59 33l-39 -280h10q57 0 94 43zM160 245q0 -42 20 -76.5t54 -51.5l37 269
q-49 -7 -80 -47t-31 -94z" />
    <glyph glyph-name="sterling" unicode="&#xa3;" horiz-adv-x="589" 
d="M437 176l110 -57q-79 -129 -182 -129q-35 0 -84.5 25t-72.5 25q-41 0 -70 -57l-103 58q40 73 55.5 112t15.5 87v50h-72v84h72v106q0 105 58.5 167.5t151.5 62.5q82 0 137 -51.5t79 -137.5l-119 -40q-32 102 -98 102q-37 0 -58.5 -26.5t-21.5 -76.5v-106h125v-84h-125v-48
q0 -46 -20 -92q15 3 28 3q27 -1 63 -22t58 -21q39 0 73 66z" />
    <glyph glyph-name="currency" unicode="&#xa4;" horiz-adv-x="616" 
d="M505 295q0 -56 -29 -100l66 -66l-68 -68l-65 65q-48 -29 -102 -29q-53 0 -101 29l-64 -65l-68 68l65 64q-30 47 -30 102q0 54 29 102l-64 64l68 68l65 -65q44 29 100 29q54 0 102 -29l65 65l68 -68l-66 -66q29 -44 29 -100zM205 295q0 -42 30 -72t72 -30t72 30t30 72
t-30 72t-72 30t-72 -30t-30 -72z" />
    <glyph glyph-name="yen" unicode="&#xa5;" horiz-adv-x="581" 
d="M380 354h110v-72h-134v-56h134v-72h-134v-154h-130v154h-135v72h135v56h-135v72h109l-196 346h145l142 -264l141 264h145z" />
    <glyph glyph-name="brokenbar" unicode="&#xa6;" horiz-adv-x="254" 
d="M170 410h-86v390h86v-390zM170 -200h-86v390h86v-390z" />
    <glyph glyph-name="section" unicode="&#xa7;" horiz-adv-x="541" 
d="M275 711q108 0 210 -87l-65 -92q-78 62 -139 62q-37 0 -53 -16t-16 -35q0 -23 23.5 -42.5t76.5 -49.5q38 -21 58 -33.5t49 -34t43.5 -41t25.5 -47t11 -59.5q0 -88 -72 -138q31 -41 31 -88q0 -26 -9.5 -53.5t-30 -55t-59.5 -45t-90 -17.5q-110 0 -209 87l65 92
q77 -62 139 -62q37 0 53 16t16 35q0 22 -25 43t-75 49l-59 34t-49 34t-43 40.5t-25 46.5t-11 60q0 87 72 138q-32 38 -32 86q0 26 9.5 53.5t30 55.5t59.5 46t90 18zM210 378q-43 -27 -43 -63q0 -11 3 -20.5t12 -19l16.5 -17t25.5 -19l30 -19l38.5 -23.5l43.5 -26
q42 27 42 64q0 32 -32 57.5t-120 76.5q-10 6 -16 9z" />
    <glyph glyph-name="dieresis" unicode="&#xa8;" horiz-adv-x="516" 
d="M153 910q28 0 47.5 -19.5t19.5 -47.5t-19.5 -47t-47.5 -19t-47 19t-19 47t19 47.5t47 19.5zM362 910q28 0 47.5 -19.5t19.5 -47.5t-19.5 -47t-47.5 -19t-47 19t-19 47t19 47.5t47 19.5z" />
    <glyph glyph-name="copyright" unicode="&#xa9;" horiz-adv-x="804" 
d="M402 710q149 0 254.5 -105.5t105.5 -254.5t-105.5 -254.5t-254.5 -105.5t-254.5 105.5t-105.5 254.5t105.5 254.5t254.5 105.5zM402 639q-120 0 -204.5 -84.5t-84.5 -204.5t84.5 -204.5t204.5 -84.5t204.5 84.5t84.5 204.5t-84.5 204.5t-204.5 84.5zM402 550
q77 0 143 -64l-51 -58q-50 43 -93 43q-44 0 -76 -35.5t-32 -84.5q0 -50 32.5 -85.5t76.5 -35.5q42 0 89 40l60 -53q-71 -66 -149 -66q-79 0 -135 59t-56 141q0 81 56 140t135 59z" />
    <glyph glyph-name="ordfeminine" unicode="&#xaa;" horiz-adv-x="332" 
d="M272 610v-109q0 -29 26 -29v-64q-11 -1 -21 -1q-37 0 -57 23q-39 -26 -87 -26q-43 0 -70 24.5t-27 64.5q0 43 33 69.5t87 26.5q16 0 42 -2v14q0 41 -43 41q-32 0 -61 -20l-40 50q55 38 109 38q49 0 79 -25.5t30 -74.5zM150 471q27 0 49 15l-1 15v34q-22 2 -35 2
q-58 0 -58 -36q0 -30 45 -30z" />
    <glyph glyph-name="guillemotleft" unicode="&#xab;" horiz-adv-x="523" 
d="M269 429l-116 -129l116 -129l-59 -54l-166 183l166 183zM479 429l-116 -129l116 -129l-59 -54l-166 183l166 183z" />
    <glyph glyph-name="logicalnot" unicode="&#xac;" horiz-adv-x="658" 
d="M574 343v-268h-96v172h-394v96h490z" />
    <glyph glyph-name="softhyphen" unicode="&#xad;" horiz-adv-x="397" 
d="M337 204h-277v112h277v-112z" />
    <glyph glyph-name="registered" unicode="&#xae;" horiz-adv-x="804" 
d="M402 710q149 0 254.5 -105.5t105.5 -254.5t-105.5 -254.5t-254.5 -105.5t-254.5 105.5t-105.5 254.5t105.5 254.5t254.5 105.5zM402 639q-120 0 -204.5 -84.5t-84.5 -204.5t84.5 -204.5t204.5 -84.5t204.5 84.5t84.5 204.5t-84.5 204.5t-204.5 84.5zM268 545h136
q57 0 98 -37.5t41 -89.5q0 -34 -19 -63.5t-52 -46.5l83 -152h-91l-73 137h-42v-137h-81v389zM349 466v-95h59q23 0 38.5 12.5t15.5 33.5t-15.5 35t-38.5 14h-59z" />
    <glyph glyph-name="macron" unicode="&#xaf;" horiz-adv-x="496" 
d="M409 606h-322v74h322v-74z" />
    <glyph glyph-name="degree" unicode="&#xb0;" horiz-adv-x="392" 
d="M196 710q65 0 112.5 -47.5t47.5 -112.5q0 -67 -47 -113.5t-113 -46.5t-113 46.5t-47 113.5q0 65 47.5 112.5t112.5 47.5zM196 633q-33 0 -58 -25t-25 -58t25 -58t58 -25t58 25t25 58t-25 58t-58 25z" />
    <glyph glyph-name="plusminus" unicode="&#xb1;" horiz-adv-x="658" 
d="M377 247v-151h197v-96h-490v96h197v151h-197v96h197v197h96v-197h197v-96h-197z" />
    <glyph glyph-name="acute" unicode="&#xb4;" horiz-adv-x="351" 
d="M264 667l-131 -132l-46 42l117 147z" />
    <glyph glyph-name="paragraph" unicode="&#xb6;" horiz-adv-x="664" 
d="M620 604h-66v-804h-96v804h-90v-804h-96v493q-86 0 -147 59.5t-61 144.5t61 144t147 59h348v-96z" />
    <glyph glyph-name="periodcentered" unicode="&#xb7;" horiz-adv-x="261" 
d="M130 426q32 0 54.5 -23t22.5 -54q0 -32 -22.5 -54t-54.5 -22t-54 22t-22 54t22 54.5t54 22.5z" />
    <glyph glyph-name="cedilla" unicode="&#xb8;" horiz-adv-x="275" 
d="M198 7l-74 -168l-72 35l82 159z" />
    <glyph glyph-name="ordmasculine" unicode="&#xba;" horiz-adv-x="378" 
d="M189 710q64 0 108.5 -45t44.5 -108t-44.5 -108t-108.5 -45t-108.5 45t-44.5 108t44.5 108t108.5 45zM189 642q-34 0 -56.5 -25t-22.5 -60t22.5 -60t56.5 -25q33 0 55.5 24.5t22.5 60.5t-22.5 60.5t-55.5 24.5z" />
    <glyph glyph-name="guillemotright" unicode="&#xbb;" horiz-adv-x="523" 
d="M269 300l-166 -183l-59 54l116 129l-116 129l59 54zM479 300l-166 -183l-59 54l116 129l-116 129l59 54z" />
    <glyph glyph-name="questiondown" unicode="&#xbf;" horiz-adv-x="446" 
d="M275 337q-34 0 -58 24t-24 58t24 57.5t58 23.5t57.5 -23.5t23.5 -57.5t-23.5 -58t-57.5 -24zM270 -221q-96 0 -160 61.5t-64 150.5q0 42 16.5 76t40 54.5t47 38.5t40 37.5t16.5 40.5v33h126v-33q0 -43 -16 -77t-39 -54.5t-46 -38.5t-39 -39t-16 -45q0 -34 26 -59.5
t68 -25.5q40 0 67 25t33 64l122 -37q-16 -76 -76.5 -124t-145.5 -48z" />
    <glyph glyph-name="Agrave" unicode="&#xc0;" horiz-adv-x="673" 
d="M375 745l-131 132l60 57l117 -147zM469 140h-265l-57 -140h-135l296 705h57l296 -705h-135zM421 260l-84 206l-84 -206h168z" />
    <glyph glyph-name="Aacute" unicode="&#xc1;" horiz-adv-x="673" 
d="M294 745l-46 42l117 147l60 -57zM469 140h-265l-57 -140h-135l296 705h57l296 -705h-135zM421 260l-84 206l-84 -206h168z" />
    <glyph glyph-name="Acircumflex" unicode="&#xc2;" horiz-adv-x="673" 
d="M234 745l-36 42l139 147l139 -147l-36 -42l-103 83zM469 140h-265l-57 -140h-135l296 705h57l296 -705h-135zM421 260l-84 206l-84 -206h168z" />
    <glyph glyph-name="Atilde" unicode="&#xc3;" horiz-adv-x="673" 
d="M285 845q-13 0 -25 -16t-19 -42l-56 27q10 43 38 72t64 29q31 0 59 -28.5t39 -28.5q29 0 46 57l57 -26q-12 -43 -40 -72.5t-62 -29.5q-22 0 -41.5 14.5t-34 29t-25.5 14.5zM469 140h-265l-57 -140h-135l296 705h57l296 -705h-135zM421 260l-84 206l-84 -206h168z" />
    <glyph glyph-name="Adieresis" unicode="&#xc4;" horiz-adv-x="673" 
d="M232 777q-28 0 -47 19t-19 47t19 47.5t47 19.5t47.5 -19.5t19.5 -47.5t-19.5 -47t-47.5 -19zM441 777q-28 0 -47 19t-19 47t19 47.5t47 19.5t47.5 -19.5t19.5 -47.5t-19.5 -47t-47.5 -19zM469 140h-265l-57 -140h-135l296 705h57l296 -705h-135zM421 260l-84 206
l-84 -206h168z" />
    <glyph glyph-name="Aring" unicode="&#xc5;" horiz-adv-x="673" 
d="M337 729q-47 0 -80.5 33.5t-33.5 80.5t33.5 80.5t80.5 33.5t80.5 -33.5t33.5 -80.5t-33.5 -80.5t-80.5 -33.5zM337 905q-25 0 -43 -18.5t-18 -43.5t18 -43t43 -18t43.5 18t18.5 43t-18.5 43.5t-43.5 18.5zM469 140h-265l-57 -140h-135l296 705h57l296 -705h-135zM421 260
l-84 206l-84 -206h168z" />
    <glyph glyph-name="AE" unicode="&#xc6;" horiz-adv-x="943" 
d="M623 580v-167h218v-120h-218v-173h270v-120h-400v153h-238l-100 -153h-143l461 700h420v-120h-270zM493 273v243l-159 -243h159z" />
    <glyph glyph-name="Ccedilla" unicode="&#xc7;" horiz-adv-x="687" 
d="M549 182l96 -82q-94 -104 -238 -110l-67 -151l-72 35l63 121q-125 23 -207 122.5t-82 232.5q0 149 102 254.5t247 105.5q143 0 245 -104l-83 -94q-65 78 -162 78q-91 0 -155 -70.5t-64 -169.5t64 -169.5t155 -70.5q94 0 158 72z" />
    <glyph glyph-name="Egrave" unicode="&#xc8;" horiz-adv-x="574" 
d="M332 745l-131 132l60 57l117 -147zM214 580v-167h258v-120h-258v-173h310v-120h-440v700h440v-120h-310z" />
    <glyph glyph-name="Eacute" unicode="&#xc9;" horiz-adv-x="574" 
d="M251 745l-46 42l117 147l60 -57zM214 580v-167h258v-120h-258v-173h310v-120h-440v700h440v-120h-310z" />
    <glyph glyph-name="Ecircumflex" unicode="&#xca;" horiz-adv-x="574" 
d="M191 745l-36 42l139 147l139 -147l-36 -42l-103 83zM214 580v-167h258v-120h-258v-173h310v-120h-440v700h440v-120h-310z" />
    <glyph glyph-name="Edieresis" unicode="&#xcb;" horiz-adv-x="574" 
d="M189 777q-28 0 -47 19t-19 47t19 47.5t47 19.5t47.5 -19.5t19.5 -47.5t-19.5 -47t-47.5 -19zM398 777q-28 0 -47 19t-19 47t19 47.5t47 19.5t47.5 -19.5t19.5 -47.5t-19.5 -47t-47.5 -19zM214 580v-167h258v-120h-258v-173h310v-120h-440v700h440v-120h-310z" />
    <glyph glyph-name="Igrave" unicode="&#xcc;" horiz-adv-x="298" 
d="M233 787l-46 -42l-131 132l60 57zM214 0h-130v700h130v-700z" />
    <glyph glyph-name="Iacute" unicode="&#xcd;" horiz-adv-x="298" 
d="M237 877l-131 -132l-46 42l117 147zM214 0h-130v700h130v-700z" />
    <glyph glyph-name="Icircumflex" unicode="&#xce;" horiz-adv-x="298" 
d="M288 787l-36 -42l-103 83l-103 -83l-36 42l139 147zM214 0h-130v700h130v-700z" />
    <glyph glyph-name="Idieresis" unicode="&#xcf;" horiz-adv-x="298" 
d="M44 910q28 0 47.5 -19.5t19.5 -47.5t-19.5 -47t-47.5 -19t-47 19t-19 47t19 47.5t47 19.5zM253 910q28 0 47.5 -19.5t19.5 -47.5t-19.5 -47t-47.5 -19t-47 19t-19 47t19 47.5t47 19.5zM214 0h-130v700h130v-700z" />
    <glyph glyph-name="Eth" unicode="&#xd0;" horiz-adv-x="653" 
d="M78 700h183q145 0 247.5 -102.5t102.5 -247.5t-102.5 -247.5t-247.5 -102.5h-183v299h-57v102h57v299zM208 120h46q104 0 165.5 66t61.5 164t-61.5 164t-165.5 66h-46v-179h110v-102h-110v-179z" />
    <glyph glyph-name="Ntilde" unicode="&#xd1;" horiz-adv-x="724" 
d="M312 915q24 0 42.5 -14.5t31.5 -28.5t24 -14q29 0 46 57l57 -26q-12 -43 -40 -72.5t-62 -29.5q-22 0 -41.5 14.5t-34 29t-25.5 14.5q-13 0 -25 -16t-19 -42l-56 27q10 43 38 72t64 29zM510 270v430h130v-705h-42l-384 435v-430h-130v705h42z" />
    <glyph glyph-name="Ograve" unicode="&#xd2;" horiz-adv-x="782" 
d="M475 787l-46 -42l-131 132l60 57zM391 710q145 0 247 -105.5t102 -254.5t-102 -254.5t-247 -105.5t-247 105.5t-102 254.5t102 254.5t247 105.5zM391 590q-91 0 -155 -70.5t-64 -169.5t64 -169.5t155 -70.5t155 70.5t64 169.5t-64 169.5t-155 70.5z" />
    <glyph glyph-name="Oacute" unicode="&#xd3;" horiz-adv-x="782" 
d="M479 877l-131 -132l-46 42l117 147zM391 710q145 0 247 -105.5t102 -254.5t-102 -254.5t-247 -105.5t-247 105.5t-102 254.5t102 254.5t247 105.5zM391 590q-91 0 -155 -70.5t-64 -169.5t64 -169.5t155 -70.5t155 70.5t64 169.5t-64 169.5t-155 70.5z" />
    <glyph glyph-name="Ocircumflex" unicode="&#xd4;" horiz-adv-x="782" 
d="M530 787l-36 -42l-103 83l-103 -83l-36 42l139 147zM391 710q145 0 247 -105.5t102 -254.5t-102 -254.5t-247 -105.5t-247 105.5t-102 254.5t102 254.5t247 105.5zM391 590q-91 0 -155 -70.5t-64 -169.5t64 -169.5t155 -70.5t155 70.5t64 169.5t-64 169.5t-155 70.5z" />
    <glyph glyph-name="Otilde" unicode="&#xd5;" horiz-adv-x="782" 
d="M341 915q31 0 59 -28.5t39 -28.5q29 0 46 57l57 -26q-12 -43 -40 -72.5t-62 -29.5q-22 0 -41.5 14.5t-34 29t-25.5 14.5q-13 0 -25 -16t-19 -42l-56 27q10 43 38 72t64 29zM391 710q145 0 247 -105.5t102 -254.5t-102 -254.5t-247 -105.5t-247 105.5t-102 254.5
t102 254.5t247 105.5zM391 590q-91 0 -155 -70.5t-64 -169.5t64 -169.5t155 -70.5t155 70.5t64 169.5t-64 169.5t-155 70.5z" />
    <glyph glyph-name="Odieresis" unicode="&#xd6;" horiz-adv-x="782" 
d="M286 910q28 0 47.5 -19.5t19.5 -47.5t-19.5 -47t-47.5 -19t-47 19t-19 47t19 47.5t47 19.5zM495 910q28 0 47.5 -19.5t19.5 -47.5t-19.5 -47t-47.5 -19t-47 19t-19 47t19 47.5t47 19.5zM391 710q145 0 247 -105.5t102 -254.5t-102 -254.5t-247 -105.5t-247 105.5
t-102 254.5t102 254.5t247 105.5zM391 590q-91 0 -155 -70.5t-64 -169.5t64 -169.5t155 -70.5t155 70.5t64 169.5t-64 169.5t-155 70.5z" />
    <glyph glyph-name="multiply" unicode="&#xd7;" horiz-adv-x="638" 
d="M386 295l168 -168l-67 -67l-168 168l-168 -168l-67 67l168 168l-168 168l67 67l168 -168l168 168l67 -67z" />
    <glyph glyph-name="Oslash" unicode="&#xd8;" horiz-adv-x="782" 
d="M655 800l-70 -150q72 -50 113.5 -129t41.5 -171q0 -149 -102 -254.5t-247 -105.5q-56 0 -107 17l-51 -108h-93l68 144q-76 49 -121 130t-45 177q0 149 102 254.5t247 105.5q60 0 120 -22l52 112h92zM172 350q0 -58 24 -109t65 -84l198 421q-31 12 -68 12
q-91 0 -155 -70.5t-64 -169.5zM391 110q91 0 155 70.5t64 169.5q0 113 -80 185l-195 -417q29 -8 56 -8z" />
    <glyph glyph-name="Ugrave" unicode="&#xd9;" horiz-adv-x="680" 
d="M424 787l-46 -42l-131 132l60 57zM606 700v-434q0 -116 -75.5 -196t-190.5 -80t-190.5 80t-75.5 196v434h130v-434q0 -65 40 -110.5t96 -45.5t96 45.5t40 110.5v434h130z" />
    <glyph glyph-name="Uacute" unicode="&#xda;" horiz-adv-x="680" 
d="M428 877l-131 -132l-46 42l117 147zM606 700v-434q0 -116 -75.5 -196t-190.5 -80t-190.5 80t-75.5 196v434h130v-434q0 -65 40 -110.5t96 -45.5t96 45.5t40 110.5v434h130z" />
    <glyph glyph-name="Ucircumflex" unicode="&#xdb;" horiz-adv-x="680" 
d="M479 787l-36 -42l-103 83l-103 -83l-36 42l139 147zM606 700v-434q0 -116 -75.5 -196t-190.5 -80t-190.5 80t-75.5 196v434h130v-434q0 -65 40 -110.5t96 -45.5t96 45.5t40 110.5v434h130z" />
    <glyph glyph-name="Udieresis" unicode="&#xdc;" horiz-adv-x="680" 
d="M235 910q28 0 47.5 -19.5t19.5 -47.5t-19.5 -47t-47.5 -19t-47 19t-19 47t19 47.5t47 19.5zM444 910q28 0 47.5 -19.5t19.5 -47.5t-19.5 -47t-47.5 -19t-47 19t-19 47t19 47.5t47 19.5zM606 700v-434q0 -116 -75.5 -196t-190.5 -80t-190.5 80t-75.5 196v434h130v-434
q0 -65 40 -110.5t96 -45.5t96 45.5t40 110.5v434h130z" />
    <glyph glyph-name="Yacute" unicode="&#xdd;" horiz-adv-x="601" 
d="M258 745l-46 42l117 147l60 -57zM366 300v-300h-130v297l-232 403h145l152 -274l151 274h145z" />
    <glyph glyph-name="Thorn" unicode="&#xde;" horiz-adv-x="610" 
d="M214 584h111q97 0 166.5 -65.5t69.5 -157.5t-70.5 -157.5t-167.5 -65.5h-109v-138h-130v700h130v-116zM214 258h114q40 0 71.5 31.5t31.5 71.5t-31.5 71.5t-71.5 31.5h-114v-206z" />
    <glyph glyph-name="germandbls" unicode="&#xdf;" horiz-adv-x="593" 
d="M289 710q92 0 149 -44t57 -117q0 -62 -56 -118q-2 -2 -7.5 -8t-7.5 -8t-6 -7.5t-6 -8t-5 -7t-4 -8t-2 -8t-1 -8.5q0 -21 22.5 -43.5t49.5 -41.5t49.5 -54.5t22.5 -79.5q0 -68 -47.5 -113.5t-123.5 -45.5q-53 0 -131 35l48 103q52 -25 80 -25q21 0 35.5 12.5t14.5 35.5
q0 22 -15 43t-36 38l-42.5 34.5t-36.5 41.5t-15 51q0 9 1.5 17.5t6 17t7 14t10 14t10.5 11.5l12.5 12.5l11.5 11.5q37 37 37 68q0 27 -20 45.5t-62 18.5q-36 0 -58.5 -24t-22.5 -64v-501h-124v493q0 100 54.5 158.5t150.5 58.5z" />
    <glyph glyph-name="agrave" unicode="&#xe0;" horiz-adv-x="507" 
d="M295 535l-131 132l60 57l117 -147zM430 334v-182q0 -49 43 -49v-106q-18 -2 -34 -2q-63 0 -97 38q-64 -43 -143 -43q-73 0 -118 41t-45 107q0 73 55 116.5t146 43.5q6 0 69 -3v24q0 68 -71 68q-51 0 -101 -33l-68 82q91 64 182 64q81 0 131.5 -42.5t50.5 -123.5zM227 101
q48 0 80 26q-1 8 -1 25v57q-27 3 -58 3q-52 0 -74.5 -17.5t-22.5 -43.5q0 -50 76 -50z" />
    <glyph glyph-name="aacute" unicode="&#xe1;" horiz-adv-x="507" 
d="M214 535l-46 42l117 147l60 -57zM430 334v-182q0 -49 43 -49v-106q-18 -2 -34 -2q-63 0 -97 38q-64 -43 -143 -43q-73 0 -118 41t-45 107q0 73 55 116.5t146 43.5q6 0 69 -3v24q0 68 -71 68q-51 0 -101 -33l-68 82q91 64 182 64q81 0 131.5 -42.5t50.5 -123.5zM227 101
q48 0 80 26q-1 8 -1 25v57q-27 3 -58 3q-52 0 -74.5 -17.5t-22.5 -43.5q0 -50 76 -50z" />
    <glyph glyph-name="acircumflex" unicode="&#xe2;" horiz-adv-x="507" 
d="M154 535l-36 42l139 147l139 -147l-36 -42l-103 83zM430 334v-182q0 -49 43 -49v-106q-18 -2 -34 -2q-63 0 -97 38q-64 -43 -143 -43q-73 0 -118 41t-45 107q0 73 55 116.5t146 43.5q6 0 69 -3v24q0 68 -71 68q-51 0 -101 -33l-68 82q91 64 182 64q81 0 131.5 -42.5
t50.5 -123.5zM227 101q48 0 80 26q-1 8 -1 25v57q-27 3 -58 3q-52 0 -74.5 -17.5t-22.5 -43.5q0 -50 76 -50z" />
    <glyph glyph-name="atilde" unicode="&#xe3;" horiz-adv-x="507" 
d="M205 635q-13 0 -25 -16t-19 -42l-56 27q10 43 38 72t64 29q31 0 59 -28.5t39 -28.5q29 0 46 57l57 -26q-12 -43 -40 -72.5t-62 -29.5q-22 0 -41.5 14.5t-34 29t-25.5 14.5zM430 334v-182q0 -49 43 -49v-106q-18 -2 -34 -2q-63 0 -97 38q-64 -43 -143 -43q-73 0 -118 41
t-45 107q0 73 55 116.5t146 43.5q6 0 69 -3v24q0 68 -71 68q-51 0 -101 -33l-68 82q91 64 182 64q81 0 131.5 -42.5t50.5 -123.5zM227 101q48 0 80 26q-1 8 -1 25v57q-27 3 -58 3q-52 0 -74.5 -17.5t-22.5 -43.5q0 -50 76 -50z" />
    <glyph glyph-name="adieresis" unicode="&#xe4;" horiz-adv-x="507" 
d="M152 567q-28 0 -47 19t-19 47t19 47.5t47 19.5t47.5 -19.5t19.5 -47.5t-19.5 -47t-47.5 -19zM361 567q-28 0 -47 19t-19 47t19 47.5t47 19.5t47.5 -19.5t19.5 -47.5t-19.5 -47t-47.5 -19zM430 334v-182q0 -49 43 -49v-106q-18 -2 -34 -2q-63 0 -97 38q-64 -43 -143 -43
q-73 0 -118 41t-45 107q0 73 55 116.5t146 43.5q6 0 69 -3v24q0 68 -71 68q-51 0 -101 -33l-68 82q91 64 182 64q81 0 131.5 -42.5t50.5 -123.5zM227 101q48 0 80 26q-1 8 -1 25v57q-27 3 -58 3q-52 0 -74.5 -17.5t-22.5 -43.5q0 -50 76 -50z" />
    <glyph glyph-name="aring" unicode="&#xe5;" horiz-adv-x="507" 
d="M257 519q-47 0 -80.5 33.5t-33.5 80.5t33.5 80.5t80.5 33.5t80.5 -33.5t33.5 -80.5t-33.5 -80.5t-80.5 -33.5zM257 695q-25 0 -43 -18.5t-18 -43.5t18 -43t43 -18t43.5 18t18.5 43t-18.5 43.5t-43.5 18.5zM430 334v-182q0 -49 43 -49v-106q-18 -2 -34 -2q-63 0 -97 38
q-64 -43 -143 -43q-73 0 -118 41t-45 107q0 73 55 116.5t146 43.5q6 0 69 -3v24q0 68 -71 68q-51 0 -101 -33l-68 82q91 64 182 64q81 0 131.5 -42.5t50.5 -123.5zM227 101q48 0 80 26q-1 8 -1 25v57q-27 3 -58 3q-52 0 -74.5 -17.5t-22.5 -43.5q0 -50 76 -50z" />
    <glyph glyph-name="ae" unicode="&#xe6;" horiz-adv-x="809" 
d="M771 210h-337q11 -48 44.5 -77.5t80.5 -29.5q64 0 104 43l80 -78q-76 -78 -187 -78q-106 0 -179 73q-86 -73 -184 -73q-68 0 -112.5 41.5t-44.5 106.5q0 72 55 115t146 43h69v23q0 68 -71 68q-51 0 -101 -33l-68 82q91 64 182 64q96 0 146 -57q67 57 158 57
q104 0 162.5 -72.5t58.5 -182.5q0 -24 -2 -35zM436 296h214q-7 41 -32.5 66t-67.5 25t-72 -25t-42 -66zM223 103q55 0 102 42q-13 32 -17 65h-60q-52 0 -74.5 -16.5t-22.5 -40.5q0 -23 19 -36.5t53 -13.5z" />
    <glyph glyph-name="ccedilla" unicode="&#xe7;" horiz-adv-x="504" 
d="M386 146l82 -83q-62 -62 -148 -71l-67 -153l-72 35l62 120q-90 17 -148.5 87.5t-58.5 163.5q0 105 74.5 180t180.5 75q94 0 167 -62l-78 -88q-37 37 -89 37q-56 0 -93.5 -41t-37.5 -101t37.5 -101t94.5 -41t94 43z" />
    <glyph glyph-name="egrave" unicode="&#xe8;" horiz-adv-x="539" 
d="M308 535l-131 132l60 57l117 -147zM501 210h-337q11 -48 44.5 -77.5t80.5 -29.5q64 0 104 43l80 -78q-76 -78 -187 -78q-106 0 -178 72.5t-72 183.5q0 110 71 182t175 72t162.5 -72.5t58.5 -182.5q0 -24 -2 -35zM166 296h214q-7 41 -32.5 66t-67.5 25t-72 -25t-42 -66z
" />
    <glyph glyph-name="eacute" unicode="&#xe9;" horiz-adv-x="539" 
d="M227 535l-46 42l117 147l60 -57zM501 210h-337q11 -48 44.5 -77.5t80.5 -29.5q64 0 104 43l80 -78q-76 -78 -187 -78q-106 0 -178 72.5t-72 183.5q0 110 71 182t175 72t162.5 -72.5t58.5 -182.5q0 -24 -2 -35zM166 296h214q-7 41 -32.5 66t-67.5 25t-72 -25t-42 -66z" />
    <glyph glyph-name="ecircumflex" unicode="&#xea;" horiz-adv-x="539" 
d="M167 535l-36 42l139 147l139 -147l-36 -42l-103 83zM501 210h-337q11 -48 44.5 -77.5t80.5 -29.5q64 0 104 43l80 -78q-76 -78 -187 -78q-106 0 -178 72.5t-72 183.5q0 110 71 182t175 72t162.5 -72.5t58.5 -182.5q0 -24 -2 -35zM166 296h214q-7 41 -32.5 66t-67.5 25
t-72 -25t-42 -66z" />
    <glyph glyph-name="edieresis" unicode="&#xeb;" horiz-adv-x="539" 
d="M165 567q-28 0 -47 19t-19 47t19 47.5t47 19.5t47.5 -19.5t19.5 -47.5t-19.5 -47t-47.5 -19zM374 567q-28 0 -47 19t-19 47t19 47.5t47 19.5t47.5 -19.5t19.5 -47.5t-19.5 -47t-47.5 -19zM501 210h-337q11 -48 44.5 -77.5t80.5 -29.5q64 0 104 43l80 -78
q-76 -78 -187 -78q-106 0 -178 72.5t-72 183.5q0 110 71 182t175 72t162.5 -72.5t58.5 -182.5q0 -24 -2 -35zM166 296h214q-7 41 -32.5 66t-67.5 25t-72 -25t-42 -66z" />
    <glyph glyph-name="igrave" unicode="&#xec;" horiz-adv-x="330" 
d="M272 577l-46 -42l-131 132l60 57zM256 0h-124v381h-88v109h212v-490z" />
    <glyph glyph-name="iacute" unicode="&#xed;" horiz-adv-x="330" 
d="M276 667l-131 -132l-46 42l117 147zM256 0h-124v381h-88v109h212v-490z" />
    <glyph glyph-name="icircumflex" unicode="&#xee;" horiz-adv-x="330" 
d="M327 577l-36 -42l-103 83l-103 -83l-36 42l139 147zM256 0h-124v381h-88v109h212v-490z" />
    <glyph glyph-name="idieresis" unicode="&#xef;" horiz-adv-x="330" 
d="M83 700q28 0 47.5 -19.5t19.5 -47.5t-19.5 -47t-47.5 -19t-47 19t-19 47t19 47.5t47 19.5zM292 700q28 0 47.5 -19.5t19.5 -47.5t-19.5 -47t-47.5 -19t-47 19t-19 47t19 47.5t47 19.5zM256 0h-124v381h-88v109h212v-490z" />
    <glyph glyph-name="eth" unicode="&#xf0;" horiz-adv-x="530" 
d="M423 632l-50 -39q120 -131 121 -346v-2q0 -117 -66.5 -186t-162.5 -69t-162.5 66.5t-66.5 161.5q0 96 66.5 164.5t157.5 68.5q46 0 86 -21q-16 55 -58 98l-63 -48l-43 56l49 38q-47 30 -106 44l46 89q82 -17 147 -65l62 49zM263 111q41 0 71 31.5t30 76.5q0 46 -30 78.5
t-71 32.5q-42 0 -72 -32.5t-30 -78.5q0 -45 30 -76.5t72 -31.5z" />
    <glyph glyph-name="ntilde" unicode="&#xf1;" horiz-adv-x="546" 
d="M220 635q-13 0 -25 -16t-19 -42l-56 27q10 43 38 72t64 29q24 0 42.5 -14.5t31.5 -28.5t24 -14q29 0 46 57l57 -26q-12 -43 -40 -72.5t-62 -29.5q-22 0 -41.5 14.5t-34 29t-25.5 14.5zM309 500q82 0 126.5 -55t44.5 -125v-320h-124v279q0 55 -18 81.5t-60 26.5
q-50 0 -88 -42v-345h-124v490h76l21 -50q69 60 146 60z" />
    <glyph glyph-name="ograve" unicode="&#xf2;" horiz-adv-x="582" 
d="M375 577l-46 -42l-131 132l60 57zM291 500q106 0 180.5 -75t74.5 -180t-74.5 -180t-180.5 -75t-180.5 75t-74.5 180t74.5 180t180.5 75zM291 387q-56 0 -93.5 -41t-37.5 -101t37.5 -101t93.5 -41t93.5 41t37.5 101t-37.5 101t-93.5 41z" />
    <glyph glyph-name="oacute" unicode="&#xf3;" horiz-adv-x="582" 
d="M379 667l-131 -132l-46 42l117 147zM291 500q106 0 180.5 -75t74.5 -180t-74.5 -180t-180.5 -75t-180.5 75t-74.5 180t74.5 180t180.5 75zM291 387q-56 0 -93.5 -41t-37.5 -101t37.5 -101t93.5 -41t93.5 41t37.5 101t-37.5 101t-93.5 41z" />
    <glyph glyph-name="ocircumflex" unicode="&#xf4;" horiz-adv-x="582" 
d="M430 577l-36 -42l-103 83l-103 -83l-36 42l139 147zM291 500q106 0 180.5 -75t74.5 -180t-74.5 -180t-180.5 -75t-180.5 75t-74.5 180t74.5 180t180.5 75zM291 387q-56 0 -93.5 -41t-37.5 -101t37.5 -101t93.5 -41t93.5 41t37.5 101t-37.5 101t-93.5 41z" />
    <glyph glyph-name="otilde" unicode="&#xf5;" horiz-adv-x="582" 
d="M241 705q31 0 59 -28.5t39 -28.5q29 0 46 57l57 -26q-12 -43 -40 -72.5t-62 -29.5q-22 0 -41.5 14.5t-34 29t-25.5 14.5q-13 0 -25 -16t-19 -42l-56 27q10 43 38 72t64 29zM291 500q106 0 180.5 -75t74.5 -180t-74.5 -180t-180.5 -75t-180.5 75t-74.5 180t74.5 180
t180.5 75zM291 387q-56 0 -93.5 -41t-37.5 -101t37.5 -101t93.5 -41t93.5 41t37.5 101t-37.5 101t-93.5 41z" />
    <glyph glyph-name="odieresis" unicode="&#xf6;" horiz-adv-x="582" 
d="M186 700q28 0 47.5 -19.5t19.5 -47.5t-19.5 -47t-47.5 -19t-47 19t-19 47t19 47.5t47 19.5zM395 700q28 0 47.5 -19.5t19.5 -47.5t-19.5 -47t-47.5 -19t-47 19t-19 47t19 47.5t47 19.5zM291 500q106 0 180.5 -75t74.5 -180t-74.5 -180t-180.5 -75t-180.5 75t-74.5 180
t74.5 180t180.5 75zM291 387q-56 0 -93.5 -41t-37.5 -101t37.5 -101t93.5 -41t93.5 41t37.5 101t-37.5 101t-93.5 41z" />
    <glyph glyph-name="divide" unicode="&#xf7;" horiz-adv-x="658" 
d="M330 540q29 0 49 -20.5t20 -49.5q0 -28 -20.5 -48.5t-48.5 -20.5t-48.5 20.5t-20.5 48.5q0 29 20 49.5t49 20.5zM574 247h-490v96h490v-96zM330 188q29 0 49 -20.5t20 -49.5q0 -28 -20.5 -48.5t-48.5 -20.5t-48.5 20.5t-20.5 48.5q0 29 20 49.5t49 20.5z" />
    <glyph glyph-name="oslash" unicode="&#xf8;" horiz-adv-x="582" 
d="M499 574l-58 -123q49 -35 77 -89.5t28 -116.5q0 -105 -74.5 -180t-180.5 -75q-30 0 -62 8l-39 -83h-93l55 116q-53 35 -84.5 91.5t-31.5 122.5q0 105 74.5 180t180.5 75q38 0 76 -11l40 85h92zM160 245q0 -64 42 -106l116 245q-14 3 -27 3q-56 0 -93.5 -41t-37.5 -101z
M278 104l13 -1q56 0 93.5 41t37.5 101q0 54 -33 95z" />
    <glyph glyph-name="ugrave" unicode="&#xf9;" horiz-adv-x="536" 
d="M352 577l-46 -42l-131 132l60 57zM470 0h-76l-21 50q-64 -60 -139 -60q-79 0 -123.5 55t-44.5 125v320h124v-279q0 -108 76 -108q47 0 80 43v344h124v-490z" />
    <glyph glyph-name="uacute" unicode="&#xfa;" horiz-adv-x="536" 
d="M356 667l-131 -132l-46 42l117 147zM470 0h-76l-21 50q-64 -60 -139 -60q-79 0 -123.5 55t-44.5 125v320h124v-279q0 -108 76 -108q47 0 80 43v344h124v-490z" />
    <glyph glyph-name="ucircumflex" unicode="&#xfb;" horiz-adv-x="536" 
d="M407 577l-36 -42l-103 83l-103 -83l-36 42l139 147zM470 0h-76l-21 50q-64 -60 -139 -60q-79 0 -123.5 55t-44.5 125v320h124v-279q0 -108 76 -108q47 0 80 43v344h124v-490z" />
    <glyph glyph-name="udieresis" unicode="&#xfc;" horiz-adv-x="536" 
d="M163 700q28 0 47.5 -19.5t19.5 -47.5t-19.5 -47t-47.5 -19t-47 19t-19 47t19 47.5t47 19.5zM372 700q28 0 47.5 -19.5t19.5 -47.5t-19.5 -47t-47.5 -19t-47 19t-19 47t19 47.5t47 19.5zM470 0h-76l-21 50q-64 -60 -139 -60q-79 0 -123.5 55t-44.5 125v320h124v-279
q0 -108 76 -108q47 0 80 43v344h124v-490z" />
    <glyph glyph-name="yacute" unicode="&#xfd;" horiz-adv-x="528" 
d="M221 535l-46 42l117 147l60 -57zM516 490l-195 -501q-36 -88 -93.5 -138.5t-153.5 -70.5l-29 112q126 27 162 122l4 10l-199 466h135l120 -316l118 316h131z" />
    <glyph glyph-name="thorn" unicode="&#xfe;" horiz-adv-x="566" 
d="M299 500q93 0 162 -75.5t69 -179.5q0 -105 -69 -180t-165 -75q-54 0 -106 29v-229h-124v910h124v-236q50 36 109 36zM278 103q61 0 94.5 41.5t33.5 100.5q0 60 -34.5 101t-89.5 41q-53 0 -92 -36v-226q41 -22 88 -22z" />
    <glyph glyph-name="ydieresis" unicode="&#xff;" horiz-adv-x="528" 
d="M159 567q-28 0 -47 19t-19 47t19 47.5t47 19.5t47.5 -19.5t19.5 -47.5t-19.5 -47t-47.5 -19zM368 567q-28 0 -47 19t-19 47t19 47.5t47 19.5t47.5 -19.5t19.5 -47.5t-19.5 -47t-47.5 -19zM516 490l-195 -501q-36 -88 -93.5 -138.5t-153.5 -70.5l-29 112q126 27 162 122
l4 10l-199 466h135l120 -316l118 316h131z" />
    <glyph glyph-name="dotlessi" unicode="&#x131;" horiz-adv-x="330" 
d="M256 0h-124v381h-88v109h212v-490z" />
    <glyph glyph-name="IJ" unicode="&#x132;" horiz-adv-x="812" 
d="M214 0h-130v700h130v-700zM738 700v-459q0 -108 -66.5 -179.5t-166.5 -71.5q-64 0 -115.5 31t-81.5 85l93 69q16 -31 43.5 -48t57.5 -17q47 0 76.5 40t29.5 102v448h130z" />
    <glyph glyph-name="ij" unicode="&#x133;" horiz-adv-x="660" 
d="M193 710q28 0 48.5 -20.5t20.5 -48.5q0 -29 -20.5 -50t-48.5 -21q-29 0 -50 21t-21 50q0 28 21 48.5t50 20.5zM523 710q28 0 48.5 -20.5t20.5 -48.5q0 -29 -20.5 -50t-48.5 -21q-29 0 -50 21t-21 50q0 28 21 48.5t50 20.5zM255 0h-124v381h-88v109h212v-490zM585 490
v-493q-1 -98 -48 -153.5t-137 -63.5l-29 111q44 11 67 35.5t23 74.5v380h-88v109h212z" />
    <glyph glyph-name="Ldot" unicode="&#x13f;" horiz-adv-x="498" 
d="M476 120v-120h-392v700h130v-580h262zM348 301q-32 0 -54 22t-22 54t22 54.5t54 22.5t54.5 -23t22.5 -54q0 -32 -22.5 -54t-54.5 -22z" />
    <glyph glyph-name="ldot" unicode="&#x140;" horiz-adv-x="399" 
d="M190 700v-548q0 -25 17 -37t46 -10v-110q-12 -1 -27 -1q-160 0 -160 154v552h124zM328 454q32 0 54.5 -23t22.5 -54q0 -32 -22.5 -54t-54.5 -22t-54 22t-22 54t22 54.5t54 22.5z" />
    <glyph glyph-name="Lslash" unicode="&#x141;" horiz-adv-x="502" 
d="M480 120v-120h-392v256l-46 -27l-43 83l89 51v337h130v-261l99 57l43 -83l-142 -82v-211h262z" />
    <glyph glyph-name="lslash" unicode="&#x142;" horiz-adv-x="338" 
d="M212 351v-199q0 -25 17 -37t46 -10v-110q-12 -1 -27 -1q-160 0 -160 154v132l-42 -24l-42 80l84 48v316h124v-245l77 44l41 -81z" />
    <glyph glyph-name="OE" unicode="&#x152;" horiz-adv-x="1102" 
d="M742 580v-167h258v-120h-258v-173h310v-120h-440v71q-95 -81 -221 -81q-145 0 -247 105.5t-102 254.5t102 254.5t247 105.5q126 0 221 -81v71h440v-120h-310zM391 110q91 0 155 70.5t64 169.5t-64 169.5t-155 70.5t-155 -70.5t-64 -169.5t64 -169.5t155 -70.5z" />
    <glyph glyph-name="oe" unicode="&#x153;" horiz-adv-x="925" 
d="M887 210h-337q11 -48 44.5 -77.5t80.5 -29.5q64 0 104 43l80 -78q-76 -78 -187 -78q-117 0 -190 86q-76 -86 -191 -86q-106 0 -180.5 75t-74.5 180t74.5 180t180.5 75q115 0 190 -85q72 85 187 85q104 0 162.5 -72.5t58.5 -182.5q0 -24 -2 -35zM291 103q56 0 93.5 41
t37.5 101t-37.5 101t-93.5 41t-93.5 -41t-37.5 -101t37.5 -101t93.5 -41zM552 296h214q-7 41 -32.5 66t-67.5 25t-72 -25t-42 -66z" />
    <glyph glyph-name="Scaron" unicode="&#x160;" horiz-adv-x="560" 
d="M143 892l36 42l103 -83l103 83l36 -42l-139 -147zM296 710q114 0 205 -75l-71 -100q-39 29 -68 42t-67 13q-51 0 -75.5 -23t-24.5 -51t24.5 -47t82.5 -42q109 -42 162.5 -95t53.5 -146q0 -86 -67.5 -141t-162.5 -55q-127 0 -242 103l78 99q1 -1 10 -8t12.5 -10
t13.5 -10.5t16 -11.5l16.5 -10.5t18 -10l18.5 -8.5t20.5 -7t20.5 -4t22 -2q44 0 70 22t26 54q0 39 -29 66.5t-106 58.5q-93 38 -140.5 82.5t-47.5 122.5q0 31 12.5 63t37.5 62.5t72.5 49.5t108.5 19z" />
    <glyph glyph-name="scaron" unicode="&#x161;" horiz-adv-x="441" 
d="M85 682l36 42l103 -83l103 83l36 -42l-139 -147zM233 500q53 0 88 -16.5t73 -48.5l-69 -82q-45 36 -89 36q-53 0 -53 -32q0 -24 51 -45q3 -1 23 -9q27 -11 47.5 -22t46 -30.5t40 -48.5t14.5 -64q0 -67 -50.5 -107.5t-131.5 -40.5q-57 0 -99 20.5t-88 60.5l68 81
q22 -16 36 -25t36 -16.5t45 -7.5q60 0 60 37q0 15 -14.5 29.5t-27 21t-36.5 17.5q-65 29 -100.5 63t-35.5 90q0 57 40.5 98t125.5 41z" />
    <glyph glyph-name="Wcircumflex" unicode="&#x174;" horiz-adv-x="840" 
d="M559 787l-36 -42l-103 83l-103 -83l-36 42l139 147zM585 316l88 384h135l-180 -705h-36l-172 424l-172 -424h-36l-180 705h135l88 -384l147 389h36z" />
    <glyph glyph-name="wcircumflex" unicode="&#x175;" horiz-adv-x="684" 
d="M481 577l-36 -42l-103 83l-103 -83l-36 42l139 147zM474 243l72 247h126l-163 -495h-34l-133 293l-133 -293h-34l-163 495h126l72 -247l114 251h36z" />
    <glyph glyph-name="Ycircumflex" unicode="&#x176;" horiz-adv-x="601" 
d="M198 745l-36 42l139 147l139 -147l-36 -42l-103 83zM366 300v-300h-130v297l-232 403h145l152 -274l151 274h145z" />
    <glyph glyph-name="ycircumflex" unicode="&#x177;" horiz-adv-x="528" 
d="M161 535l-36 42l139 147l139 -147l-36 -42l-103 83zM516 490l-195 -501q-36 -88 -93.5 -138.5t-153.5 -70.5l-29 112q126 27 162 122l4 10l-199 466h135l120 -316l118 316h131z" />
    <glyph glyph-name="Ydieresis" unicode="&#x178;" horiz-adv-x="601" 
d="M196 777q-28 0 -47 19t-19 47t19 47.5t47 19.5t47.5 -19.5t19.5 -47.5t-19.5 -47t-47.5 -19zM405 777q-28 0 -47 19t-19 47t19 47.5t47 19.5t47.5 -19.5t19.5 -47.5t-19.5 -47t-47.5 -19zM366 300v-300h-130v297l-232 403h145l152 -274l151 274h145z" />
    <glyph glyph-name="Zcaron" unicode="&#x17d;" horiz-adv-x="546" 
d="M134 892l36 42l103 -83l103 83l36 -42l-139 -147zM510 630l-307 -510h313v-120h-486v70l307 510h-297v120h470v-70z" />
    <glyph glyph-name="zcaron" unicode="&#x17e;" horiz-adv-x="466" 
d="M94 682l36 42l103 -83l103 83l36 -42l-139 -147zM436 425l-237 -316h234v-109h-403v65l237 316h-229v109h398v-65z" />
    <glyph glyph-name="florin" unicode="&#x192;" horiz-adv-x="420" 
d="M294 710q33 0 59 -9.5t37 -20.5l-59 -102q-18 11 -34 11q-18 0 -30.5 -13t-12.5 -31v-141h118v-84h-118v-371q0 -76 -48 -122.5t-118 -46.5q-33 0 -59 9.5t-37 20.5l59 102q18 -11 34 -11q18 0 30.5 13t12.5 31v375h-84v84h84v137q0 76 48 122.5t118 46.5z" />
    <glyph glyph-name="circumflex" unicode="&#x2c6;" horiz-adv-x="452" 
d="M365 577l-36 -42l-103 83l-103 -83l-36 42l139 147z" />
    <glyph glyph-name="caron" unicode="&#x2c7;" horiz-adv-x="452" 
d="M87 682l36 42l103 -83l103 83l36 -42l-139 -147z" />
    <glyph glyph-name="breve" unicode="&#x2d8;" horiz-adv-x="474" 
d="M318 700h69q0 -72 -43.5 -121.5t-106.5 -49.5t-106.5 49.5t-43.5 121.5h69q0 -39 24 -67t57 -28t57 28t24 67z" />
    <glyph glyph-name="dotaccent" unicode="&#x2d9;" horiz-adv-x="314" 
d="M158 710q28 0 48.5 -20.5t20.5 -48.5q0 -29 -20.5 -50t-48.5 -21q-29 0 -50 21t-21 50q0 28 21 48.5t50 20.5z" />
    <glyph glyph-name="ring" unicode="&#x2da;" horiz-adv-x="402" 
d="M201 747q47 0 80.5 -33.5t33.5 -80.5t-33.5 -80.5t-80.5 -33.5t-80.5 33.5t-33.5 80.5t33.5 80.5t80.5 33.5zM201 695q-25 0 -43 -18.5t-18 -43.5t18 -43t43 -18t43.5 18t18.5 43t-18.5 43.5t-43.5 18.5z" />
    <glyph glyph-name="ogonek" unicode="&#x2db;" horiz-adv-x="310" 
d="M140 10l59 -9q-48 -22 -48 -66q0 -41 92 -45l-5 -72q-73 0 -116.5 28.5t-43.5 74.5q0 54 62 89z" />
    <glyph glyph-name="tilde" unicode="&#x2dc;" horiz-adv-x="477" 
d="M189 705q31 0 59 -28.5t39 -28.5q29 0 46 57l57 -26q-12 -43 -40 -72.5t-62 -29.5q-22 0 -41.5 14.5t-34 29t-25.5 14.5q-13 0 -25 -16t-19 -42l-56 27q10 43 38 72t64 29z" />
    <glyph glyph-name="hungarumlaut" unicode="&#x2dd;" horiz-adv-x="521" 
d="M264 667l-131 -132l-46 42l117 147zM434 667l-131 -132l-46 42l117 147z" />
    <glyph glyph-name="Delta" unicode="&#x394;" horiz-adv-x="640" 
d="M647 0h-654l306 710h40zM468 120l-149 359l-148 -359h297z" />
    <glyph glyph-name="Omega" unicode="&#x3a9;" horiz-adv-x="684" 
d="M505 120h117v-120h-230v235q53 15 90 64t38 112q0 74 -52.5 126.5t-125.5 52.5q-74 0 -126 -52.5t-52 -126.5q1 -63 38 -112.5t91 -62.5v-236h-231v120h117v38q-63 40 -100 107t-37 145q0 124 88 212t212 88t212 -88t88 -212q0 -78 -37 -144.5t-100 -107.5v-38z" />
    <glyph glyph-name="mu" unicode="&#x3bc;" horiz-adv-x="575" 
d="M480 490v-331q0 -25 17 -37t46 -10v-116q-9 -1 -25 -1q-97 0 -136 54q-55 -57 -134 -57q-42 0 -81 19l23 -221h-124v700h124v-278q0 -55 19.5 -80.5t65.5 -25.5q52 0 81 40v344h124z" />
    <glyph glyph-name="pi" unicode="&#x3c0;" horiz-adv-x="662" 
d="M572 126l56 -97q-42 -39 -116 -39q-70 0 -114 43.5t-44 120.5v247h-116v-401h-124v401h-80v110h520v-110h-76v-248q0 -21 12 -35t29 -14q30 0 53 22z" />
    <glyph glyph-name="Wgrave" unicode="&#x1e80;" horiz-adv-x="840" 
d="M504 787l-46 -42l-131 132l60 57zM585 316l88 384h135l-180 -705h-36l-172 424l-172 -424h-36l-180 705h135l88 -384l147 389h36z" />
    <glyph glyph-name="wgrave" unicode="&#x1e81;" horiz-adv-x="684" 
d="M426 577l-46 -42l-131 132l60 57zM474 243l72 247h126l-163 -495h-34l-133 293l-133 -293h-34l-163 495h126l72 -247l114 251h36z" />
    <glyph glyph-name="Wacute" unicode="&#x1e82;" horiz-adv-x="840" 
d="M508 877l-131 -132l-46 42l117 147zM585 316l88 384h135l-180 -705h-36l-172 424l-172 -424h-36l-180 705h135l88 -384l147 389h36z" />
    <glyph glyph-name="wacute" unicode="&#x1e83;" horiz-adv-x="684" 
d="M430 667l-131 -132l-46 42l117 147zM474 243l72 247h126l-163 -495h-34l-133 293l-133 -293h-34l-163 495h126l72 -247l114 251h36z" />
    <glyph glyph-name="Wdieresis" unicode="&#x1e84;" horiz-adv-x="840" 
d="M315 910q28 0 47.5 -19.5t19.5 -47.5t-19.5 -47t-47.5 -19t-47 19t-19 47t19 47.5t47 19.5zM524 910q28 0 47.5 -19.5t19.5 -47.5t-19.5 -47t-47.5 -19t-47 19t-19 47t19 47.5t47 19.5zM585 316l88 384h135l-180 -705h-36l-172 424l-172 -424h-36l-180 705h135l88 -384
l147 389h36z" />
    <glyph glyph-name="wdieresis" unicode="&#x1e85;" horiz-adv-x="684" 
d="M237 700q28 0 47.5 -19.5t19.5 -47.5t-19.5 -47t-47.5 -19t-47 19t-19 47t19 47.5t47 19.5zM446 700q28 0 47.5 -19.5t19.5 -47.5t-19.5 -47t-47.5 -19t-47 19t-19 47t19 47.5t47 19.5zM474 243l72 247h126l-163 -495h-34l-133 293l-133 -293h-34l-163 495h126l72 -247
l114 251h36z" />
    <glyph glyph-name="Ygrave" unicode="&#x1ef2;" horiz-adv-x="601" 
d="M339 745l-131 132l60 57l117 -147zM366 300v-300h-130v297l-232 403h145l152 -274l151 274h145z" />
    <glyph glyph-name="ygrave" unicode="&#x1ef3;" horiz-adv-x="528" 
d="M302 535l-131 132l60 57l117 -147zM516 490l-195 -501q-36 -88 -93.5 -138.5t-153.5 -70.5l-29 112q126 27 162 122l4 10l-199 466h135l120 -316l118 316h131z" />
    <glyph glyph-name="uni2000" unicode="&#x2000;" horiz-adv-x="478" 
 />
    <glyph glyph-name="uni2001" unicode="&#x2001;" horiz-adv-x="957" 
 />
    <glyph glyph-name="uni2002" unicode="&#x2002;" horiz-adv-x="478" 
 />
    <glyph glyph-name="uni2003" unicode="&#x2003;" horiz-adv-x="957" 
 />
    <glyph glyph-name="uni2004" unicode="&#x2004;" horiz-adv-x="319" 
 />
    <glyph glyph-name="uni2005" unicode="&#x2005;" horiz-adv-x="239" 
 />
    <glyph glyph-name="uni2006" unicode="&#x2006;" horiz-adv-x="159" 
 />
    <glyph glyph-name="uni2007" unicode="&#x2007;" horiz-adv-x="252" 
 />
    <glyph glyph-name="uni2008" unicode="&#x2008;" horiz-adv-x="119" 
 />
    <glyph glyph-name="uni2009" unicode="&#x2009;" horiz-adv-x="191" 
 />
    <glyph glyph-name="uni200A" unicode="&#x200a;" horiz-adv-x="53" 
 />
    <glyph glyph-name="uni2010" unicode="&#x2010;" horiz-adv-x="397" 
d="M337 204h-277v112h277v-112z" />
    <glyph glyph-name="uni2011" unicode="&#x2011;" horiz-adv-x="397" 
d="M337 204h-277v112h277v-112z" />
    <glyph glyph-name="figuredash" unicode="&#x2012;" horiz-adv-x="397" 
d="M337 204h-277v112h277v-112z" />
    <glyph glyph-name="endash" unicode="&#x2013;" horiz-adv-x="608" 
d="M548 238h-488v112h488v-112z" />
    <glyph glyph-name="emdash" unicode="&#x2014;" horiz-adv-x="810" 
d="M750 238h-690v112h690v-112z" />
    <glyph glyph-name="quoteleft" unicode="&#x2018;" horiz-adv-x="294" 
d="M149 419q-36 0 -59.5 27t-23.5 83q0 116 98 181l29 -40q-49 -29 -63 -91q10 3 21 3q34 0 57.5 -23.5t23.5 -57.5t-24 -58t-59 -24z" />
    <glyph glyph-name="quoteright" unicode="&#x2019;" horiz-adv-x="294" 
d="M121 709q36 0 59.5 -27t23.5 -83q0 -116 -98 -181l-29 40q49 29 63 91q-10 -3 -21 -3q-34 0 -57.5 23.5t-23.5 57.5t24 58t59 24z" />
    <glyph glyph-name="quotesinglbase" unicode="&#x201a;" horiz-adv-x="274" 
d="M137 153q36 0 59.5 -27t23.5 -83q0 -116 -98 -181l-29 40q49 29 63 91q-10 -3 -21 -3q-34 0 -57.5 23.5t-23.5 57.5t24 58t59 24z" />
    <glyph glyph-name="quotedblleft" unicode="&#x201c;" horiz-adv-x="508" 
d="M149 429q-36 0 -59.5 27t-23.5 83q0 116 98 181l29 -40q-49 -29 -63 -91q10 3 21 3q34 0 57.5 -23.5t23.5 -57.5t-24 -58t-59 -24zM363 429q-36 0 -59.5 27t-23.5 83q0 116 98 181l29 -40q-49 -29 -63 -91q10 3 21 3q34 0 57.5 -23.5t23.5 -57.5t-24 -58t-59 -24z" />
    <glyph glyph-name="quotedblright" unicode="&#x201d;" horiz-adv-x="509" 
d="M121 719q36 0 59.5 -27t23.5 -83q0 -116 -98 -181l-29 40q49 29 63 91q-10 -3 -21 -3q-34 0 -57.5 23.5t-23.5 57.5t24 58t59 24zM336 719q36 0 59.5 -27t23.5 -83q0 -116 -98 -181l-29 40q49 29 63 91q-11 -3 -21 -3q-34 0 -57.5 23.5t-23.5 57.5t24 58t59 24z" />
    <glyph glyph-name="quotedblbase" unicode="&#x201e;" horiz-adv-x="489" 
d="M137 163q36 0 59.5 -27t23.5 -83q0 -116 -98 -181l-29 40q49 29 63 91q-10 -3 -21 -3q-34 0 -57.5 23.5t-23.5 57.5t24 58t59 24zM352 163q36 0 59.5 -27t23.5 -83q0 -116 -98 -181l-29 40q49 29 63 91q-11 -3 -21 -3q-34 0 -57.5 23.5t-23.5 57.5t24 58t59 24z" />
    <glyph glyph-name="dagger" unicode="&#x2020;" horiz-adv-x="658" 
d="M574 374h-180v-514h-130v514h-180v116h180v210h130v-210h180v-116z" />
    <glyph glyph-name="daggerdbl" unicode="&#x2021;" horiz-adv-x="658" 
d="M394 374v-188h180v-116h-180v-210h-130v210h-180v116h180v188h-180v116h180v210h130v-210h180v-116h-180z" />
    <glyph glyph-name="bullet" unicode="&#x2022;" horiz-adv-x="588" 
d="M294 498q87 0 148.5 -61.5t61.5 -148.5t-61.5 -148.5t-148.5 -61.5t-148.5 61.5t-61.5 148.5t61.5 148.5t148.5 61.5z" />
    <glyph glyph-name="ellipsis" unicode="&#x2026;" horiz-adv-x="771" 
d="M135 153q34 0 58 -24t24 -58t-24 -57.5t-58 -23.5t-57.5 23.5t-23.5 57.5t23.5 58t57.5 24zM385 153q34 0 58 -24t24 -58t-24 -57.5t-58 -23.5t-57.5 23.5t-23.5 57.5t23.5 58t57.5 24zM635 153q34 0 58 -24t24 -58t-24 -57.5t-58 -23.5t-57.5 23.5t-23.5 57.5t23.5 58
t57.5 24z" />
    <glyph glyph-name="uni202F" unicode="&#x202f;" horiz-adv-x="191" 
 />
    <glyph glyph-name="perthousand" unicode="&#x2030;" horiz-adv-x="1253" 
d="M218 710q70 0 120 -50.5t50 -120.5t-50 -119.5t-120 -49.5t-120 49.5t-50 119.5t50 120.5t120 50.5zM251 0h-90l431 700h89zM218 618q-32 0 -55 -23t-23 -55t23 -55t55 -23t55 23t23 55t-23 55t-55 23zM629 330q70 0 120 -50.5t50 -120.5t-50 -119.5t-120 -49.5
t-120 49.5t-50 119.5t50 120.5t120 50.5zM1035 330q70 0 120 -50.5t50 -120.5t-50 -119.5t-120 -49.5t-120 49.5t-50 119.5t50 120.5t120 50.5zM629 238q-31 0 -54.5 -23t-23.5 -55t23.5 -55t54.5 -23t54.5 23t23.5 55t-23.5 55t-54.5 23zM1035 238q-31 0 -54.5 -23
t-23.5 -55t23.5 -55t54.5 -23t54.5 23t23.5 55t-23.5 55t-54.5 23z" />
    <glyph glyph-name="guilsinglleft" unicode="&#x2039;" horiz-adv-x="313" 
d="M269 429l-116 -129l116 -129l-59 -54l-166 183l166 183z" />
    <glyph glyph-name="guilsinglright" unicode="&#x203a;" horiz-adv-x="313" 
d="M269 300l-166 -183l-59 54l116 129l-116 129l59 54z" />
    <glyph glyph-name="fraction" unicode="&#x2044;" horiz-adv-x="569" 
d="M153 0h-119l383 700h118z" />
    <glyph glyph-name="uni205F" unicode="&#x205f;" horiz-adv-x="239" 
 />
    <glyph glyph-name="Euro" unicode="&#x20ac;" horiz-adv-x="697" 
d="M568 182l87 -82q-90 -110 -229 -110q-109 0 -195.5 71t-117.5 183h-79v72h66q-1 11 -1 34q0 21 1 32h-66v72h79q30 112 116.5 184t195.5 72q129 0 222 -104l-75 -94q-59 78 -146 78q-58 0 -105.5 -37.5t-72.5 -98.5h162v-72h-179q-2 -20 -2 -32t2 -34h179v-72h-161
q24 -60 72 -97t105 -37q84 0 142 72z" />
    <glyph glyph-name="uni2117" unicode="&#x2117;" horiz-adv-x="804" 
d="M402 710q149 0 254.5 -105.5t105.5 -254.5t-105.5 -254.5t-254.5 -105.5t-254.5 105.5t-105.5 254.5t105.5 254.5t254.5 105.5zM402 639q-120 0 -204.5 -84.5t-84.5 -204.5t84.5 -204.5t204.5 -84.5t204.5 84.5t84.5 204.5t-84.5 204.5t-204.5 84.5zM290 545h137
q58 0 98.5 -38.5t40.5 -92.5q0 -55 -41.5 -94t-97.5 -39h-54v-125h-83v389zM373 466v-104h60q21 0 36 14t15 36q0 23 -15 38.5t-36 15.5h-60z" />
    <glyph glyph-name="trademark" unicode="&#x2122;" horiz-adv-x="684" 
d="M268 700v-72h-83v-248h-77v248h-82v72h242zM658 380h-77l-35 134l-67 -134h-19l-66 136l-34 -136h-78l76 320h20l91 -176l92 176h20z" />
    <glyph glyph-name="arrowleft" unicode="&#x2190;" horiz-adv-x="990" 
d="M946 301h-717l243 -243l-68 -68l-360 360l360 360l68 -68l-245 -245h719v-96z" />
    <glyph glyph-name="arrowup" unicode="&#x2191;" horiz-adv-x="808" 
d="M696 366l-243 243v-717h-96v719l-245 -245l-68 68l360 360l360 -360z" />
    <glyph glyph-name="arrowright" unicode="&#x2192;" horiz-adv-x="990" 
d="M946 350l-360 -360l-68 68l243 243h-717v96h719l-245 245l68 68z" />
    <glyph glyph-name="arrowdown" unicode="&#x2193;" horiz-adv-x="808" 
d="M764 264l-360 -360l-360 360l68 68l243 -243v717h96v-719l245 245z" />
    <glyph glyph-name="uni2194" unicode="&#x2194;" horiz-adv-x="1072" 
d="M1028 350l-280 -280l-68 68l163 163h-614l163 -163l-68 -68l-280 280l280 280l68 -68l-165 -165h618l-165 165l68 68z" />
    <glyph glyph-name="arrowupdn" unicode="&#x2195;" horiz-adv-x="648" 
d="M536 170l68 -68l-280 -280l-280 280l68 68l163 -163v614l-163 -163l-68 68l280 280l280 -280l-68 -68l-165 165v-618z" />
    <glyph glyph-name="partialdiff" unicode="&#x2202;" horiz-adv-x="593" 
d="M294 710q46 0 88 -20t77.5 -59t56.5 -106t21 -153q0 -74 -14.5 -139.5t-45.5 -121.5t-86 -88.5t-129 -32.5q-91 0 -148.5 58.5t-57.5 144.5q0 41 15.5 84t45 82t81.5 63.5t117 24.5t114 -44q-2 89 -41 142t-96 53q-44 0 -84 -19l-43 100q60 31 129 31zM305 337
q-53 0 -92.5 -39t-39.5 -93q0 -45 29 -74.5t74 -29.5q53 0 93 39.5t40 93.5q0 44 -29.5 73.5t-74.5 29.5z" />
    <glyph glyph-name="emptyset" unicode="&#x2205;" horiz-adv-x="582" 
d="M526 472l-46 -55q66 -74 66 -172q0 -105 -74.5 -180t-180.5 -75q-75 0 -136 39l-47 -55l-52 44l46 55q-66 74 -66 172q0 105 74.5 180t180.5 75q75 0 136 -39l47 55zM160 245q0 -42 21 -78l171 204q-29 16 -61 16q-56 0 -93.5 -41t-37.5 -101zM291 103q56 0 93.5 41
t37.5 101q0 44 -20 78l-172 -204q29 -16 61 -16z" />
    <glyph glyph-name="product" unicode="&#x220f;" horiz-adv-x="704" 
d="M620 -200h-96v904h-344v-904h-96v1000h536v-1000z" />
    <glyph glyph-name="summation" unicode="&#x2211;" horiz-adv-x="726" 
d="M614 603h-337l243 -354l-243 -354h337v-96h-519l311 450l-311 450h519v-96z" />
    <glyph glyph-name="minus" unicode="&#x2212;" horiz-adv-x="658" 
d="M574 247h-490v96h490v-96z" />
    <glyph glyph-name="radical" unicode="&#x221a;" horiz-adv-x="639" 
d="M645 700l-288 -830h-104l-116 335h-103v96h174l97 -281l236 680h104z" />
    <glyph glyph-name="infinity" unicode="&#x221e;" horiz-adv-x="860" 
d="M599 489q77 0 127 -51.5t50 -128.5t-50 -128.5t-127 -51.5q-93 0 -169 98q-76 -98 -167 -98q-76 0 -127.5 51.5t-51.5 128.5t51.5 128.5t127.5 51.5q91 0 167 -98q76 98 169 98zM258 225q33 0 59 21.5t55 62.5q-29 41 -55 62.5t-59 21.5q-34 0 -56 -23t-22 -61t22 -61
t56 -23zM602 225q34 0 56 23t22 61t-22 61t-56 23q-55 0 -114 -84q59 -84 114 -84z" />
    <glyph glyph-name="integral" unicode="&#x222b;" horiz-adv-x="438" 
d="M303 760q85 0 121 -73l-86 -42q-10 19 -32 19q-39 0 -39 -44v-628q0 -65 -37 -102.5t-95 -37.5q-85 0 -121 73l86 42q9 -19 32 -19q39 0 39 44v628q0 65 37 102.5t95 37.5z" />
    <glyph glyph-name="approxequal" unicode="&#x2248;" horiz-adv-x="619" 
d="M228 470q22 0 43 -9t32 -17t32 -25q35 -29 53 -29q35 0 62 51l85 -46q-55 -101 -145 -101q-23 0 -45 8.5t-33.5 16.5t-30.5 24q-38 31 -52 31q-33 0 -60 -53l-85 44q56 105 144 105zM228 290q22 0 43 -9t32 -17t32 -25q35 -29 53 -29q35 0 62 51l85 -46
q-55 -101 -145 -101q-23 0 -45 8.5t-33.5 16.5t-30.5 24q-38 31 -52 31q-33 0 -60 -53l-85 44q56 105 144 105z" />
    <glyph glyph-name="notequal" unicode="&#x2260;" horiz-adv-x="658" 
d="M398 343l-34 -94h210v-96h-245l-54 -151l-88 33l42 118h-145v96h180l34 94h-214v96h248l51 141l89 -32l-39 -109h141v-96h-176z" />
    <glyph glyph-name="lessequal" unicode="&#x2264;" horiz-adv-x="616" 
d="M504 436l-210 -110l210 -80v-105l-409 169v34l409 197v-105zM504 96v-96h-409v96h409z" />
    <glyph glyph-name="greaterequal" unicode="&#x2265;" horiz-adv-x="589" 
d="M527 344v-34l-409 -169v105l210 80l-210 110v105zM527 0h-409v96h409v-96z" />
    <glyph glyph-name="lozenge" unicode="&#x25ca;" horiz-adv-x="649" 
d="M565 350l-182 -360h-107l-181 360l181 360h107zM203 350l127 -255l129 255l-129 255z" />
    <glyph glyph-name="uni25FC" unicode="&#x25fc;" horiz-adv-x="490" 
d="M0 490h490v-490h-490v490z" />
    <glyph glyph-name="uniFB00" unicode="&#xfb00;" horiz-adv-x="659" 
d="M523 490h106v-100h-106v-390h-124v390h-180v-390h-124v390h-57v100h57v52q0 79 48.5 123.5t131.5 44.5q69 0 129 -41l-63 -100q-25 21 -67 21q-55 0 -55 -44v-56h180v52q0 79 46 123.5t124 44.5q64 0 119 -41l-63 -100q-21 21 -57 21q-45 0 -45 -44v-56z" />
    <glyph glyph-name="uniFB03" unicode="&#xfb03;" horiz-adv-x="915" 
d="M585 730q59 0 106 -27l-54 -105q-24 12 -53 12q-55 0 -55 -44v-76h310v-490h-124v390h-186v-390h-124v390h-186v-390h-124v390h-57v100h57v72q0 79 48.5 123.5t131.5 44.5q59 0 106 -27l-54 -105q-24 12 -53 12q-55 0 -55 -44v-76h186v72q0 79 48.5 123.5t131.5 44.5z
M777 670q29 0 49.5 -20.5t20.5 -49.5t-20.5 -49.5t-49.5 -20.5t-49.5 20.5t-20.5 49.5t20.5 49.5t49.5 20.5z" />
    <glyph glyph-name="a.ss01" horiz-adv-x="496" 
d="M248 500q81 0 131.5 -42.5t50.5 -123.5v-334h-76l-16 38q-58 -48 -139 -48q-73 0 -118 41t-45 107q0 73 55 116.5t146 43.5q6 0 69 -3v24q0 68 -71 68q-51 0 -101 -33l-68 82q91 64 182 64zM151 151q0 -24 19.5 -39.5t56.5 -15.5q44 0 79 27v86q-27 3 -58 3
q-52 0 -74.5 -17.5t-22.5 -43.5z" />
    <glyph glyph-name="g.ss01" horiz-adv-x="566" 
d="M500 490v-481q0 -111 -64.5 -172.5t-171.5 -61.5q-119 0 -199 84l84 78q28 -27 52.5 -38t61.5 -11q53 0 83 29t30 90v12q-52 -29 -106 -29q-96 0 -165 75t-69 180q0 104 69 179.5t162 75.5q74 0 136 -59l21 49h76zM288 103q47 0 88 22v226q-39 36 -92 36q-55 0 -89.5 -41
t-34.5 -101q0 -59 33.5 -100.5t94.5 -41.5z" />
    <glyph glyph-name="l.ss01" horiz-adv-x="256" 
d="M190 0h-124v700h124v-700z" />
    <glyph glyph-name="T_h" horiz-adv-x="1027" 
d="M790 500q82 0 126.5 -55t44.5 -125v-320h-124v279q0 55 -18 81.5t-60 26.5q-50 0 -88 -42v-345h-124v580h-214v-580h-130v580h-181v120h649v-239q56 39 119 39z" />
    <glyph glyph-name="f_f_j" horiz-adv-x="915" 
d="M585 730q59 0 106 -27l-54 -105q-24 12 -53 12q-55 0 -55 -44v-76h310v-493q-1 -98 -48 -153.5t-137 -63.5l-29 111q44 11 67 35.5t23 74.5v389h-186v-390h-124v390h-186v-390h-124v390h-57v100h57v72q0 79 48.5 123.5t131.5 44.5q59 0 106 -27l-54 -105q-24 12 -53 12
q-55 0 -55 -44v-76h186v72q0 79 48.5 123.5t131.5 44.5zM777 670q29 0 49.5 -20.5t20.5 -49.5t-20.5 -49.5t-49.5 -20.5t-49.5 20.5t-20.5 49.5t20.5 49.5t49.5 20.5z" />
    <glyph glyph-name="f_j" horiz-adv-x="605" 
d="M275 730q59 0 106 -27l-54 -105q-24 12 -53 12q-55 0 -55 -44v-76h310v-493q-1 -98 -48 -153.5t-137 -63.5l-29 111q44 11 67 35.5t23 74.5v389h-186v-390h-124v390h-57v100h57v72q0 79 48.5 123.5t131.5 44.5zM467 680q29 0 49.5 -20.5t20.5 -49.5t-20.5 -49.5
t-49.5 -20.5t-49.5 20.5t-20.5 49.5t20.5 49.5t49.5 20.5z" />
    <glyph glyph-name="i_T" horiz-adv-x="777" 
d="M193 710q28 0 48.5 -20.5t20.5 -48.5q0 -29 -20.5 -50t-48.5 -21q-29 0 -50 21t-21 50q0 28 21 48.5t50 20.5zM755 580h-152v-580h-130v580h-138v120h420v-120zM255 0h-124v381h-88v109h212v-490z" />
    <glyph glyph-name="r_i" horiz-adv-x="630" 
d="M492 570q-29 0 -49.5 20.5t-20.5 49.5t20.5 49.5t49.5 20.5t49.5 -20.5t20.5 -49.5t-20.5 -49.5t-49.5 -20.5zM142 490l21 -50q64 60 140 60q34 0 64 -9l-18 -130q-45 20 -72 20q-55 0 -87 -51v-330h-124v490h76zM430 490h124v-490h-124v490z" />
    <glyph glyph-name="t_i" horiz-adv-x="619" 
d="M481 540q-29 0 -49.5 20.5t-20.5 49.5t20.5 49.5t49.5 20.5t49.5 -20.5t20.5 -49.5t-20.5 -49.5t-49.5 -20.5zM543 490v-490h-124v390h-207v-236q0 -47 38 -47q23 0 46 16l25 -101q-44 -32 -104 -32q-61 0 -95 34t-34 104v262h-54v100h54v87l124 33v-120h331z" />
    <glyph glyph-name="t_y" horiz-adv-x="830" 
d="M818 490l-195 -501q-36 -88 -93.5 -138.5t-153.5 -70.5l-29 112q126 27 162 122l4 10l-156 366h-145v-236q0 -47 38 -47q23 0 46 16l25 -101q-44 -32 -104 -32q-61 0 -95 34t-34 104v262h-54v100h54v87l124 33v-120h237l120 -316l118 316h131z" />
    <glyph glyph-name="zero.tf" 
d="M297 710q115 0 177.5 -94t62.5 -266t-62.5 -266t-177.5 -94t-177.5 94t-62.5 266t62.5 266t177.5 94zM297 590q-110 0 -110 -240t110 -240t110 240t-110 240z" />
    <glyph glyph-name="one.tf" 
d="M495 120v-120h-378v120h124v416l-110 -54l-46 103l246 120h40v-585h124z" />
    <glyph glyph-name="two.tf" 
d="M286 710q92 0 154.5 -60t62.5 -153q0 -52 -24 -98t-84 -121l-129 -158h238v-120h-450v40l235 299q47 61 65.5 93.5t18.5 67.5q0 43 -25.5 66.5t-63.5 23.5q-42 0 -67 -29t-25 -75l-128 13q0 86 63.5 148.5t158.5 62.5z" />
    <glyph glyph-name="three.tf" 
d="M488 660l-149 -219q80 -20 128 -80.5t48 -140.5q0 -97 -72 -163.5t-176 -66.5q-70 0 -126.5 32.5t-87.5 86.5l118 59q33 -58 99 -58q49 0 82 32t33 79q0 50 -31.5 82t-83.5 32l-53 -5l-55 62l134 188h-217v120h409v-40z" />
    <glyph glyph-name="four.tf" 
d="M201 251h125v149h124v-149h67v-121h-67v-130h-124v130h-272v68l211 502h130z" />
    <glyph glyph-name="five.tf" 
d="M453 580h-226l-18 -133q27 9 61 9q103 0 171 -66.5t68 -164.5q0 -99 -69.5 -167t-171.5 -68q-81 0 -138.5 45t-80.5 118l122 36q24 -79 96 -79q48 0 80 32.5t32 80.5q0 47 -30.5 79.5t-78.5 32.5q-41 0 -79 -30l-107 40l43 355h326v-120z" />
    <glyph glyph-name="six.tf" 
d="M325 710q82 0 168 -53l-67 -101q-52 34 -99 34q-59 0 -96.5 -46.5t-50.5 -119.5q55 34 116 34q87 0 157 -65t70 -167q0 -100 -68 -168t-172 -68q-72 0 -125.5 34.5t-81.5 90.5q-32 64 -32 176q0 207 79 313t202 106zM286 337q-44 0 -78 -31t-34 -83q0 -48 30.5 -80.5
t77.5 -32.5t79 32t32 81t-31.5 81.5t-75.5 32.5z" />
    <glyph glyph-name="seven.tf" 
d="M518 700v-32l-265 -668h-125l234 580h-284v120h440z" />
    <glyph glyph-name="eight.tf" 
d="M429 382q49 -29 77 -76t28 -102q0 -91 -69 -152.5t-172 -61.5t-172 62t-69 152q0 55 28 102t77 76q-72 57 -72 143q0 77 59.5 131t148.5 54t148.5 -54t59.5 -131q0 -89 -72 -143zM293 591q-35 0 -58.5 -22.5t-23.5 -54.5q0 -33 23.5 -55.5t58.5 -22.5t58.5 22t23.5 56
q0 32 -23.5 54.5t-58.5 22.5zM293 113q48 0 79.5 30t31.5 74q0 43 -31.5 73t-79.5 30t-79.5 -30t-31.5 -73q0 -44 31.5 -74t79.5 -30z" />
    <glyph glyph-name="nine.tf" 
d="M292 710q72 0 125.5 -34.5t81.5 -90.5q32 -64 32 -176q0 -215 -75.5 -317t-205.5 -102q-82 0 -168 53l67 101q50 -34 99 -34q60 0 99.5 45t47.5 117q-55 -34 -116 -34q-87 0 -157 65.5t-70 168.5q0 100 68 169t172 69zM293 590q-47 0 -79 -33t-32 -83t31.5 -82.5
t76.5 -32.5q43 0 77 30.5t34 82.5q0 49 -30.5 83.5t-77.5 34.5z" />
    <glyph glyph-name="bullet.small" horiz-adv-x="434" 
d="M219 475q57 0 99 -42t42 -99q0 -60 -42 -102.5t-99 -42.5q-60 0 -102.5 42.5t-42.5 102.5q0 57 42.5 99t102.5 42z" />
    <glyph glyph-name="ampersand.ss01" horiz-adv-x="633" 
d="M274 710q64 0 115.5 -36.5t84.5 -97.5l-111 -56q-34 70 -87 70q-31 0 -55.5 -22.5t-24.5 -60.5q0 -42 31 -71t81 -29h64v63l124 32v-95h97v-100h-97v-152q0 -48 33 -48q23 0 45 16l25 -101q-42 -32 -103 -32q-66 0 -96 45q-72 -45 -145 -45q-87 0 -143 57t-56 138
q0 49 21.5 95t59.5 77q-66 54 -66 148q0 87 59.5 146t143.5 59zM372 307h-71q-53 0 -86.5 -35.5t-33.5 -83.5q0 -36 20.5 -57t56.5 -21q65 0 114 51v146z" />
    <glyph glyph-name="percent.sc" horiz-adv-x="621" 
d="M167 497q49 0 84 -35.5t35 -84.5t-35 -83.5t-84 -34.5q-50 0 -84.5 34.5t-34.5 83.5q0 50 35 85t84 35zM190 0h-63l301 490h63zM167 433q-22 0 -38.5 -16.5t-16.5 -38.5t16.5 -38.5t38.5 -16.5t38 16.5t16 38.5t-16 38.5t-38 16.5zM454 231q49 0 84 -35.5t35 -84.5
t-35 -83.5t-84 -34.5t-84 34.5t-35 83.5t35 84.5t84 35.5zM454 167q-22 0 -38 -16.5t-16 -38.5t16 -38.5t38 -16.5t38.5 16.5t16.5 38.5t-16.5 38.5t-38.5 16.5z" />
    <glyph glyph-name="perthousand.sc" horiz-adv-x="905" 
d="M167 497q49 0 84 -35.5t35 -84.5t-35 -83.5t-84 -34.5q-50 0 -84.5 34.5t-34.5 83.5q0 50 35 85t84 35zM190 0h-63l301 490h63zM167 433q-22 0 -38.5 -16.5t-16.5 -38.5t16.5 -38.5t38.5 -16.5t38 16.5t16 38.5t-16 38.5t-38 16.5zM454 231q49 0 84 -35.5t35 -84.5
t-35 -83.5t-84 -34.5t-84 34.5t-35 83.5t35 84.5t84 35.5zM738 231q49 0 84 -35t35 -85q0 -49 -34.5 -83.5t-84.5 -34.5q-49 0 -84 34.5t-35 83.5t35 84.5t84 35.5zM454 167q-22 0 -38 -16.5t-16 -38.5t16 -38.5t38 -16.5t38.5 16.5t16.5 38.5t-16.5 38.5t-38.5 16.5z
M738 167q-22 0 -38 -16.5t-16 -38.5t16 -38.5t38 -16.5t38.5 16.5t16.5 38.5t-16.5 38.5t-38.5 16.5z" />
    <glyph glyph-name="dieresis.lc" horiz-adv-x="516" 
d="M153 700q28 0 47.5 -19.5t19.5 -47.5t-19.5 -47t-47.5 -19t-47 19t-19 47t19 47.5t47 19.5zM362 700q28 0 47.5 -19.5t19.5 -47.5t-19.5 -47t-47.5 -19t-47 19t-19 47t19 47.5t47 19.5z" />
    </font>
</defs>
</svg>
